<svg width="94" height="86" viewBox="0 0 94 86" fill="none" xmlns="http://www.w3.org/2000/svg">
<g clip-path="url(#clip0)">
<mask id="path-2-inside-1" fill="white">
<path d="M10 80.3373C10 83.4669 12.5371 86.004 15.6667 86.004H78C81.1296 86.004 83.6667 83.4669 83.6667 80.3373V76.0873C83.6491 75.7952 83.5585 75.5122 83.4032 75.2642L76.5833 65.7159V36.4206C76.5833 34.0734 74.6805 32.1706 72.3333 32.1706H69.6587C69.8584 31.611 70.0412 31.0543 70.2183 30.4975C73.7979 28.4666 76.4193 25.0915 77.5013 21.1206C79.5824 13.0782 74.7006 4.87286 74.4909 4.5272C74.1751 4.00631 73.5616 3.74568 72.9674 3.87993C72.3732 4.01419 71.9313 4.51327 71.8701 5.11936C71.5868 7.94136 69.9788 10.4262 62.8431 14.0925C60.7417 15.0527 59.1101 16.8113 58.3099 18.9787C57.5097 21.146 57.607 23.543 58.5803 25.6384C57.5093 27.5254 56.5092 29.401 55.6308 31.2172C55.0174 32.4794 54.4607 33.7403 53.9308 34.9997L53.945 18.0039C53.9161 17.8125 53.8745 17.6232 53.8203 17.4373L50.001 3.41228C49.6135 1.98823 48.3205 1 46.8447 1C45.3689 1 44.0758 1.98823 43.6883 3.41228L39.8081 17.6299C39.7826 17.7543 39.7656 17.8802 39.7571 18.0068V30.5995L32.8622 13.9579C32.2428 12.5355 30.6035 11.8648 29.1647 12.4449L17.3794 17.3169C15.9333 17.9183 15.247 19.5768 15.8452 21.0243L20.5003 32.2542C18.514 32.6512 17.0839 34.395 17.0833 36.4206V65.7159L10.2635 75.2642C10.1083 75.5123 10.0177 75.7952 10 76.0873L10 80.3373ZM80.8333 80.3373C80.8333 81.9021 79.5648 83.1706 78 83.1706H15.6667C14.1019 83.1706 12.8333 81.9021 12.8333 80.3373V77.504H33.4968L35.9151 79.9222C36.1807 80.1879 36.541 80.3372 36.9167 80.3373H56.75C57.1257 80.3372 57.486 80.1879 57.7516 79.9222L60.1698 77.504H80.8333V80.3373ZM46.8333 77.504H37.5032L35.704 75.7048L36.5214 73.254H57.1453L57.9627 75.7048L56.1635 77.504H46.8333ZM60.7578 27.5169L62.9848 28.5184C64.4128 29.1616 65.8521 29.8104 67.2617 30.4394C66.9656 31.3135 66.6426 32.1947 66.2955 33.0744C66.1538 33.4555 65.9853 33.8409 65.8266 34.2248C63.5428 33.5563 61.347 32.6175 59.2858 31.4283C59.1272 31.3433 58.9742 31.2654 58.8183 31.1804C59.4261 29.9734 60.065 28.7536 60.7578 27.5169ZM64.1379 16.6085C69.1161 14.05 72.0628 11.7494 73.5432 9.10728C75.0942 12.6659 75.5169 16.6145 74.7544 20.4208C73.8558 23.64 71.7246 26.3754 68.8228 28.0339C67.256 27.3341 65.6934 26.6329 64.1478 25.9373L61.2295 24.624C60.5167 23.1805 60.4241 21.5085 60.9732 19.995C61.5223 18.4816 62.6653 17.2579 64.1379 16.6071V16.6085ZM57.5873 33.7289C57.7063 33.7927 57.8238 33.8522 57.9443 33.9174C60.08 35.1374 62.3433 36.1193 64.6933 36.8456C62.7045 41.1013 60.4328 45.2188 57.8933 49.1706H53.9167V43.4657C54.8844 40.1293 56.1117 36.8738 57.5873 33.7289ZM48.25 49.1706V35.0039C48.25 34.2215 47.6157 33.5873 46.8333 33.5873C46.0509 33.5873 45.4167 34.2215 45.4167 35.0039V49.1706H42.5833V22.2539C43.4151 22.8946 44.3856 23.3312 45.4167 23.5289V27.9206C45.4167 28.703 46.0509 29.3373 46.8333 29.3373C47.6157 29.3373 48.25 28.703 48.25 27.9206V23.5289C49.2877 23.3309 50.2642 22.8912 51.1003 22.2454L51.0833 43.2589C51.0833 43.2744 51.0763 43.2929 51.0763 43.3084V43.3396L51.0833 49.1706H48.25ZM51.0139 17.9147C50.3172 19.6238 48.6847 20.7669 46.8404 20.8373C44.996 20.7659 43.364 19.6216 42.6683 17.9119L43.9873 13.081C45.7851 13.9781 47.9 13.9781 49.6978 13.081L51.0139 17.9147ZM47.2668 4.16028L48.9456 10.3228C48.2991 10.6799 47.5795 10.8844 46.8418 10.9206C46.1045 10.8839 45.3854 10.6789 44.7395 10.3214L46.4225 4.16028C46.4916 3.98771 46.6588 3.87456 46.8447 3.87456C47.0306 3.87456 47.1977 3.98771 47.2668 4.16028ZM30.2583 15.0573L31.3421 17.6739L26.1004 19.8442C25.6182 20.0277 25.2739 20.4589 25.2016 20.9697C25.1293 21.4805 25.3405 21.9903 25.7528 22.3004C26.1651 22.6105 26.7134 22.6719 27.1842 22.4608L32.4258 20.2904L33.511 22.9084L30.8873 23.995C30.2624 24.2537 29.9074 24.918 30.0398 25.5813C30.1722 26.2446 30.755 26.7218 31.4313 26.7207C31.617 26.72 31.8007 26.6835 31.9725 26.613L34.5948 25.5264L35.6785 28.1444L30.4368 30.3148C29.8119 30.5734 29.4569 31.2378 29.5893 31.9011C29.7217 32.5643 30.3045 33.0415 30.9808 33.0404C31.1665 33.0398 31.3502 33.0032 31.522 32.9328L36.7637 30.7624L38.4056 34.7291L39.75 37.7891V49.1706H30.5813L18.4603 19.9363L30.2583 15.0573ZM19.9167 36.4206C19.9167 35.6382 20.5509 35.0039 21.3333 35.0039H21.6408L27.5143 49.1706H27C26.2176 49.1706 25.5833 49.8049 25.5833 50.5873C25.5833 51.3697 26.2176 52.0039 27 52.0039H66.6667C67.4491 52.0039 68.0833 51.3697 68.0833 50.5873C68.0833 49.8049 67.4491 49.1706 66.6667 49.1706H61.2338C64.0716 44.6623 66.5254 39.9234 68.5693 35.0039H72.3333C73.1157 35.0039 73.75 35.6382 73.75 36.4206V64.7539H19.9167V36.4206ZM19.2296 67.5873H74.4371L79.4974 74.6706H60.6048L59.5111 71.3896C59.3183 70.8108 58.7767 70.4205 58.1667 70.4206H35.5C34.89 70.4205 34.3484 70.8108 34.1556 71.3896L33.0619 74.6706H14.1693L19.2296 67.5873Z"/>
</mask>
<path d="M10 80.3373C10 83.4669 12.5371 86.004 15.6667 86.004H78C81.1296 86.004 83.6667 83.4669 83.6667 80.3373V76.0873C83.6491 75.7952 83.5585 75.5122 83.4032 75.2642L76.5833 65.7159V36.4206C76.5833 34.0734 74.6805 32.1706 72.3333 32.1706H69.6587C69.8584 31.611 70.0412 31.0543 70.2183 30.4975C73.7979 28.4666 76.4193 25.0915 77.5013 21.1206C79.5824 13.0782 74.7006 4.87286 74.4909 4.5272C74.1751 4.00631 73.5616 3.74568 72.9674 3.87993C72.3732 4.01419 71.9313 4.51327 71.8701 5.11936C71.5868 7.94136 69.9788 10.4262 62.8431 14.0925C60.7417 15.0527 59.1101 16.8113 58.3099 18.9787C57.5097 21.146 57.607 23.543 58.5803 25.6384C57.5093 27.5254 56.5092 29.401 55.6308 31.2172C55.0174 32.4794 54.4607 33.7403 53.9308 34.9997L53.945 18.0039C53.9161 17.8125 53.8745 17.6232 53.8203 17.4373L50.001 3.41228C49.6135 1.98823 48.3205 1 46.8447 1C45.3689 1 44.0758 1.98823 43.6883 3.41228L39.8081 17.6299C39.7826 17.7543 39.7656 17.8802 39.7571 18.0068V30.5995L32.8622 13.9579C32.2428 12.5355 30.6035 11.8648 29.1647 12.4449L17.3794 17.3169C15.9333 17.9183 15.247 19.5768 15.8452 21.0243L20.5003 32.2542C18.514 32.6512 17.0839 34.395 17.0833 36.4206V65.7159L10.2635 75.2642C10.1083 75.5123 10.0177 75.7952 10 76.0873L10 80.3373ZM80.8333 80.3373C80.8333 81.9021 79.5648 83.1706 78 83.1706H15.6667C14.1019 83.1706 12.8333 81.9021 12.8333 80.3373V77.504H33.4968L35.9151 79.9222C36.1807 80.1879 36.541 80.3372 36.9167 80.3373H56.75C57.1257 80.3372 57.486 80.1879 57.7516 79.9222L60.1698 77.504H80.8333V80.3373ZM46.8333 77.504H37.5032L35.704 75.7048L36.5214 73.254H57.1453L57.9627 75.7048L56.1635 77.504H46.8333ZM60.7578 27.5169L62.9848 28.5184C64.4128 29.1616 65.8521 29.8104 67.2617 30.4394C66.9656 31.3135 66.6426 32.1947 66.2955 33.0744C66.1538 33.4555 65.9853 33.8409 65.8266 34.2248C63.5428 33.5563 61.347 32.6175 59.2858 31.4283C59.1272 31.3433 58.9742 31.2654 58.8183 31.1804C59.4261 29.9734 60.065 28.7536 60.7578 27.5169ZM64.1379 16.6085C69.1161 14.05 72.0628 11.7494 73.5432 9.10728C75.0942 12.6659 75.5169 16.6145 74.7544 20.4208C73.8558 23.64 71.7246 26.3754 68.8228 28.0339C67.256 27.3341 65.6934 26.6329 64.1478 25.9373L61.2295 24.624C60.5167 23.1805 60.4241 21.5085 60.9732 19.995C61.5223 18.4816 62.6653 17.2579 64.1379 16.6071V16.6085ZM57.5873 33.7289C57.7063 33.7927 57.8238 33.8522 57.9443 33.9174C60.08 35.1374 62.3433 36.1193 64.6933 36.8456C62.7045 41.1013 60.4328 45.2188 57.8933 49.1706H53.9167V43.4657C54.8844 40.1293 56.1117 36.8738 57.5873 33.7289ZM48.25 49.1706V35.0039C48.25 34.2215 47.6157 33.5873 46.8333 33.5873C46.0509 33.5873 45.4167 34.2215 45.4167 35.0039V49.1706H42.5833V22.2539C43.4151 22.8946 44.3856 23.3312 45.4167 23.5289V27.9206C45.4167 28.703 46.0509 29.3373 46.8333 29.3373C47.6157 29.3373 48.25 28.703 48.25 27.9206V23.5289C49.2877 23.3309 50.2642 22.8912 51.1003 22.2454L51.0833 43.2589C51.0833 43.2744 51.0763 43.2929 51.0763 43.3084V43.3396L51.0833 49.1706H48.25ZM51.0139 17.9147C50.3172 19.6238 48.6847 20.7669 46.8404 20.8373C44.996 20.7659 43.364 19.6216 42.6683 17.9119L43.9873 13.081C45.7851 13.9781 47.9 13.9781 49.6978 13.081L51.0139 17.9147ZM47.2668 4.16028L48.9456 10.3228C48.2991 10.6799 47.5795 10.8844 46.8418 10.9206C46.1045 10.8839 45.3854 10.6789 44.7395 10.3214L46.4225 4.16028C46.4916 3.98771 46.6588 3.87456 46.8447 3.87456C47.0306 3.87456 47.1977 3.98771 47.2668 4.16028ZM30.2583 15.0573L31.3421 17.6739L26.1004 19.8442C25.6182 20.0277 25.2739 20.4589 25.2016 20.9697C25.1293 21.4805 25.3405 21.9903 25.7528 22.3004C26.1651 22.6105 26.7134 22.6719 27.1842 22.4608L32.4258 20.2904L33.511 22.9084L30.8873 23.995C30.2624 24.2537 29.9074 24.918 30.0398 25.5813C30.1722 26.2446 30.755 26.7218 31.4313 26.7207C31.617 26.72 31.8007 26.6835 31.9725 26.613L34.5948 25.5264L35.6785 28.1444L30.4368 30.3148C29.8119 30.5734 29.4569 31.2378 29.5893 31.9011C29.7217 32.5643 30.3045 33.0415 30.9808 33.0404C31.1665 33.0398 31.3502 33.0032 31.522 32.9328L36.7637 30.7624L38.4056 34.7291L39.75 37.7891V49.1706H30.5813L18.4603 19.9363L30.2583 15.0573ZM19.9167 36.4206C19.9167 35.6382 20.5509 35.0039 21.3333 35.0039H21.6408L27.5143 49.1706H27C26.2176 49.1706 25.5833 49.8049 25.5833 50.5873C25.5833 51.3697 26.2176 52.0039 27 52.0039H66.6667C67.4491 52.0039 68.0833 51.3697 68.0833 50.5873C68.0833 49.8049 67.4491 49.1706 66.6667 49.1706H61.2338C64.0716 44.6623 66.5254 39.9234 68.5693 35.0039H72.3333C73.1157 35.0039 73.75 35.6382 73.75 36.4206V64.7539H19.9167V36.4206ZM19.2296 67.5873H74.4371L79.4974 74.6706H60.6048L59.5111 71.3896C59.3183 70.8108 58.7767 70.4205 58.1667 70.4206H35.5C34.89 70.4205 34.3484 70.8108 34.1556 71.3896L33.0619 74.6706H14.1693L19.2296 67.5873Z" fill="white" stroke="white" mask="url(#path-2-inside-1)"/>
<path d="M68.0366 25.4316C68.3034 25.4313 68.5646 25.3557 68.7903 25.2134C71.2881 23.5953 72.9928 21.0036 73.4894 18.0692C73.5676 17.2907 73 16.5962 72.2215 16.518C71.443 16.4397 70.7485 17.0074 70.6702 17.7859C70.2558 19.8502 69.0311 21.6621 67.2702 22.8164C66.7372 23.1538 66.4914 23.803 66.6674 24.4088C66.8434 25.0145 67.3987 25.431 68.0296 25.4302L68.0366 25.4316Z" fill="white"/>
</g>
<defs>
<clipPath id="clip0">
<rect x="0.549133" y="0.54895" width="93.36" height="85" fill="white"/>
</clipPath>
</defs>
</svg>
