<svg width="94" height="86" viewBox="0 0 94 86" fill="none" xmlns="http://www.w3.org/2000/svg">
<g clip-path="url(#clip0)">
<path d="M13.1514 19.3163H3.42596V20.2888H13.1514V19.3163Z" fill="white"/>
<path d="M13.1514 23.2064H3.42596V24.179H13.1514V23.2064Z" fill="white"/>
<path d="M13.1514 27.0966H3.42596V28.0691H13.1514V27.0966Z" fill="white"/>
<path d="M13.1514 30.9868H3.42596V31.9594H13.1514V30.9868Z" fill="white"/>
<path d="M13.1514 34.877H3.42596V35.8495H13.1514V34.877Z" fill="white"/>
<path d="M13.1514 38.7671H3.42596V39.7396H13.1514V38.7671Z" fill="white"/>
<path d="M13.1514 42.6572H3.42596V43.6298H13.1514V42.6572Z" fill="white"/>
<path d="M13.1514 46.5474H3.42596V47.5199H13.1514V46.5474Z" fill="white"/>
<path d="M13.1514 50.4375H3.42596V51.41H13.1514V50.4375Z" fill="white"/>
<path d="M13.1514 54.3278H3.42596V55.3003H13.1514V54.3278Z" fill="white"/>
<path d="M13.1514 58.2179H3.42596V59.1904H13.1514V58.2179Z" fill="white"/>
<path d="M71.99 6.18701C70.7257 6.18701 69.7532 7.15955 69.7532 8.42385C69.7532 9.68816 70.7257 10.6607 71.99 10.6607C73.2543 10.6607 74.2269 9.68816 74.2269 8.42385C74.2269 7.15955 73.2543 6.18701 71.99 6.18701ZM71.99 9.78541C71.3092 9.78541 70.7257 9.20189 70.7257 8.52111C70.7257 7.84033 71.3092 7.25681 71.99 7.25681C72.6708 7.25681 73.2543 7.84033 73.2543 8.52111C73.2543 9.20189 72.6708 9.78541 71.99 9.78541Z" fill="white"/>
<path d="M77.8253 6.18701C76.561 6.18701 75.5884 7.15955 75.5884 8.42385C75.5884 9.68816 76.561 10.6607 77.8253 10.6607C79.0896 10.6607 80.0621 9.68816 80.0621 8.42385C80.0621 7.15955 79.0896 6.18701 77.8253 6.18701ZM77.8253 9.78541C77.1445 9.78541 76.561 9.20189 76.561 8.52111C76.561 7.84033 77.1445 7.25681 77.8253 7.25681C78.5061 7.25681 79.0896 7.84033 79.0896 8.52111C79.0896 9.20189 78.5061 9.78541 77.8253 9.78541Z" fill="white"/>
<path d="M83.6605 6.18701C82.3962 6.18701 81.4236 7.15955 81.4236 8.42385C81.4236 9.68816 82.3962 10.6607 83.6605 10.6607C84.9248 10.6607 85.8973 9.68816 85.8973 8.42385C85.8973 7.15955 84.9248 6.18701 83.6605 6.18701ZM83.6605 9.78541C82.9797 9.78541 82.3962 9.20189 82.3962 8.52111C82.3962 7.84033 82.9797 7.25681 83.6605 7.25681C84.3413 7.25681 84.9248 7.84033 84.9248 8.52111C84.9248 9.20189 84.3413 9.78541 83.6605 9.78541Z" fill="white"/>
<path d="M45.2452 25.8323L37.4648 22.0394V23.6927L43.3973 26.7076L37.4648 29.6252V31.2786L45.2452 27.4857V25.8323Z" fill="white"/>
<path d="M27.7395 31.2786V29.6252L21.807 26.7076L27.7395 23.6927V22.0394L19.9591 25.8323V27.4857L27.7395 31.2786Z" fill="white"/>
<path d="M34.3725 19.5811L29.0243 32.8395L30.4674 33.4216L35.8156 20.1632L34.3725 19.5811Z" fill="white"/>
<path d="M41.355 36.822H26.7669V37.7946H41.355V36.822Z" fill="white"/>
<path d="M41.355 40.7122H26.7669V41.6847H41.355V40.7122Z" fill="white"/>
<path d="M56.9157 40.7122H42.3276V41.6847H56.9157V40.7122Z" fill="white"/>
<path d="M52.0529 38.7671H37.4648V39.7396H52.0529V38.7671Z" fill="white"/>
<path d="M25.7944 36.822H19.9591V37.7946H25.7944V36.822Z" fill="white"/>
<path d="M25.7944 48.4924H19.9591V49.465H25.7944V48.4924Z" fill="white"/>
<path d="M29.6845 38.7671H23.8493V39.7396H29.6845V38.7671Z" fill="white"/>
<path d="M36.4923 38.7671H30.6571V39.7396H36.4923V38.7671Z" fill="white"/>
<path d="M29.6845 46.5474H23.8493V47.5199H29.6845V46.5474Z" fill="white"/>
<path d="M36.4923 42.6572H30.6571V43.6298H36.4923V42.6572Z" fill="white"/>
<path d="M43.3001 42.6572H37.4648V43.6298H43.3001V42.6572Z" fill="white"/>
<path d="M50.1079 42.6572H44.2726V43.6298H50.1079V42.6572Z" fill="white"/>
<path d="M32.6021 44.6023H26.7669V45.5748H32.6021V44.6023Z" fill="white"/>
<path d="M37.4649 52.3827H22.8768V53.3552H37.4649V52.3827Z" fill="white"/>
<path d="M53.0255 52.3827H38.4374V53.3552H53.0255V52.3827Z" fill="white"/>
<path d="M48.1628 50.4375H33.5747V51.41H48.1628V50.4375Z" fill="white"/>
<path d="M25.7944 50.4375H19.9591V51.41H25.7944V50.4375Z" fill="white"/>
<path d="M32.6021 50.4375H26.7669V51.41H32.6021V50.4375Z" fill="white"/>
<path d="M25.7944 58.2179H19.9591V59.1904H25.7944V58.2179Z" fill="white"/>
<path d="M32.6021 54.3278H26.7669V55.3003H32.6021V54.3278Z" fill="white"/>
<path d="M39.4099 54.3278H33.5747V55.3003H39.4099V54.3278Z" fill="white"/>
<path d="M46.2177 54.3278H40.3825V55.3003H46.2177V54.3278Z" fill="white"/>
<path d="M28.712 56.2728H22.8768V57.2454H28.712V56.2728Z" fill="white"/>
<path d="M88.7177 0.838013L3.71772 0.838013C1.38362 0.838013 -0.464203 2.68584 -0.464203 5.01994L-0.464203 14.4536L-0.464203 15.4261L-0.464203 60.8437C-0.464203 63.1778 1.38362 65.0257 3.71772 65.0257H15.0964H16.069H50.5942L50.3024 66.8735L54.1926 67.5543C54.2898 68.8186 54.4843 70.0829 54.8733 71.3472L51.4694 73.2922L54.8733 79.2247L58.18 77.2797C59.0552 78.2522 60.0278 79.1275 61.1948 79.8083L59.8333 83.5039L66.252 85.838L67.5163 82.2396C68.8779 82.4341 70.1422 82.4341 71.5038 82.2396L72.7681 85.838L79.2841 83.5039L77.9225 79.9055C78.9923 79.2247 80.0621 78.3494 80.9374 77.3769L84.244 79.322L87.6479 73.3895L84.244 71.4444C84.633 70.1801 84.8276 68.9158 84.9248 67.6515L88.815 66.9707L88.5232 65.0257H88.815C91.0518 65.0257 92.9969 63.1778 92.9969 60.8437V15.4261V14.4536V5.01994C92.8996 2.68584 91.0518 0.838013 88.7177 0.838013ZM3.71772 63.0806C2.45342 63.0806 1.48088 62.108 1.48088 60.8437L1.48088 15.4261H15.0964V63.0806H3.71772ZM82.9797 65.9982V66.9707C82.9797 68.5268 82.688 70.0829 82.2017 71.5417L81.9099 72.3197L85.0221 74.0703L83.5633 76.5989L80.4511 74.8483L79.9649 75.5291C78.8951 76.7934 77.728 77.8632 76.2692 78.6412L75.5884 79.0302L76.7555 82.3369L74.0324 83.3094L72.8653 80.0028L72.0873 80.1973C70.3367 80.489 68.8779 80.489 67.2246 80.1973L66.4466 80.0028L65.2795 83.3094L62.5564 82.3369L63.7234 79.0302L62.8482 78.6412C61.3893 77.8632 60.125 76.7934 59.1525 75.5291L58.6662 74.8483L55.5541 76.5989L54.0953 74.0703L57.2074 72.3197L56.9157 71.5417C56.3321 70.0829 56.1376 68.5268 56.1376 66.9707V65.9982L52.5392 65.4147L53.0255 62.4971L56.6239 63.1778L56.9157 62.3998C57.4992 60.8437 58.2772 59.4822 59.347 58.3151L59.9305 57.7316L57.4992 54.9112L59.6388 53.0634L61.8756 55.8838L62.5564 55.4948C63.8207 54.814 65.6685 54.2305 66.6411 53.9387L67.6136 53.6469V50.4376H70.5312V53.5497L71.4065 53.6469C73.1571 53.9387 74.7131 54.425 76.0747 55.203L76.7555 55.592L79.3813 52.7717L81.6182 54.7167L79.2841 57.6343L79.8676 58.2179C80.9374 59.3849 81.7154 60.8437 82.299 62.3025L82.5907 63.0806L86.1891 62.3998L86.6754 65.3174L82.9797 65.9982ZM90.9546 60.8437C90.9546 62.0108 89.982 63.0806 88.7177 63.0806H88.1342L87.6479 60.163L83.6605 60.8437C83.1742 59.6767 82.4935 58.5096 81.7154 57.5371L84.3413 54.425L79.1868 50.0485L76.3665 53.2579C75.1994 52.6744 73.9351 52.1881 72.4763 51.8964V48.4925H65.6685V51.9936C64.7932 52.2854 63.5289 52.6744 62.3619 53.1607L59.8333 50.1458L54.6788 54.5222L57.3047 57.6343C56.5266 58.6069 55.9431 59.7739 55.3596 60.941L51.4694 60.2602L50.9832 63.1778H16.069V15.4261L90.9546 15.4261V60.8437ZM16.069 14.4536H15.0964H1.48088L1.48088 5.01994C1.48088 3.75563 2.45342 2.78309 3.71772 2.78309L88.9122 2.78309C90.0793 2.78309 90.9546 3.75563 90.9546 5.01994V14.4536L16.069 14.4536Z" fill="white"/>
<path d="M69.5587 57.0508C64.1125 57.0508 59.6388 61.5245 59.6388 66.9707C59.6388 72.4169 64.1125 76.8906 69.5587 76.8906C75.0049 76.8906 79.4786 72.4169 79.4786 66.9707C79.4786 61.5245 75.0049 57.0508 69.5587 57.0508ZM69.5587 75.9181C64.5988 75.9181 60.6113 71.9306 60.6113 66.9707C60.6113 62.0107 64.5988 58.0233 69.5587 58.0233C74.5187 58.0233 78.5061 62.0107 78.5061 66.9707C78.5061 71.9306 74.5187 75.9181 69.5587 75.9181Z" fill="white"/>
<path d="M69.5587 59.3849C65.3767 59.3849 61.9728 62.7888 61.9728 66.9707C61.9728 71.1526 65.3767 74.5565 69.5587 74.5565C73.7406 74.5565 77.1445 71.1526 77.1445 66.9707C77.1445 62.7888 73.7406 59.3849 69.5587 59.3849ZM69.5587 72.6114C66.4465 72.6114 63.9179 70.0828 63.9179 66.9707C63.9179 63.8586 66.4465 61.33 69.5587 61.33C72.6708 61.33 75.1994 63.8586 75.1994 66.9707C75.1994 70.0828 72.6708 72.6114 69.5587 72.6114Z" fill="white"/>
</g>
<defs>
<clipPath id="clip0">
<rect x="0.533142" y="0.910767" width="93.3638" height="85" fill="white"/>
</clipPath>
</defs>
</svg>
