<svg width="25" height="25" viewBox="0 0 25 25" fill="none" xmlns="http://www.w3.org/2000/svg">
<path d="M22.4905 6.72465H16.0033V5.1128H22.4905V6.72465ZM12.5747 13.3309C12.9925 13.98 13.2023 14.7688 13.2023 15.6911C13.2023 16.6484 12.9663 17.5048 12.4865 18.2618C12.1814 18.7631 11.8017 19.1865 11.3465 19.5265C10.8333 19.9206 10.2264 20.1922 9.52892 20.3376C8.82825 20.483 8.07118 20.5537 7.25532 20.5537H0V4.44629H7.77884C9.73943 4.47727 11.1296 5.04527 11.9503 6.16221C12.4428 6.84619 12.6867 7.66682 12.6867 8.6209C12.6867 9.60676 12.4388 10.394 11.9423 10.9922C11.6659 11.3282 11.2575 11.6341 10.7158 11.909C11.5364 12.21 12.1584 12.6811 12.5747 13.3309ZM3.71465 10.7968H7.12345C7.82412 10.7968 8.39053 10.6625 8.82587 10.3972C9.262 10.1311 9.47966 9.6584 9.47966 8.97997C9.47966 8.23164 9.19209 7.73434 8.61455 7.49522C8.11805 7.3284 7.48332 7.2426 6.71354 7.2426H3.71465V10.7968ZM9.80775 15.4607C9.80775 14.6242 9.46536 14.0467 8.78297 13.7353C8.40165 13.5597 7.86304 13.4684 7.1727 13.462H3.71465V17.7542H7.11789C7.81776 17.7542 8.35875 17.6636 8.7496 17.4714C9.45424 17.1219 9.80775 16.4538 9.80775 15.4607ZM24.8967 12.8408C24.9762 13.3683 25.0119 14.1325 24.996 15.1319H16.596C16.6428 16.2917 17.0424 17.102 17.8027 17.5659C18.2595 17.8567 18.8147 17.9989 19.4654 17.9989C20.1509 17.9989 20.7094 17.8257 21.1392 17.4698C21.3735 17.2807 21.5801 17.0138 21.758 16.6786H24.8379C24.7561 17.3626 24.3867 18.0561 23.7194 18.7639C22.6875 19.884 21.2401 20.4488 19.3812 20.4488C17.844 20.4488 16.4911 19.9722 15.3162 19.0276C14.1444 18.0807 13.5566 16.5403 13.5566 14.4066C13.5566 12.4055 14.0856 10.8723 15.1454 9.80695C16.2083 8.73847 17.5802 8.20701 19.2723 8.20701C20.2749 8.20701 21.1789 8.38576 21.986 8.74562C22.79 9.10708 23.4541 9.67428 23.9768 10.4544C24.4495 11.1416 24.7545 11.936 24.8967 12.8408ZM21.8645 13.1419C21.8097 12.3403 21.5411 11.7334 21.0581 11.3187C20.5791 10.9016 19.9825 10.6935 19.2707 10.6935C18.4938 10.6935 17.8972 10.9159 17.4698 11.3545C17.0416 11.7938 16.7755 12.388 16.6659 13.1419H21.8645Z" fill="white"/>
</svg>
