<svg width="25" height="25" viewBox="0 0 25 25" fill="none" xmlns="http://www.w3.org/2000/svg">
<g clip-path="url(#clip0)">
<path d="M12.5 0.520996C5.59375 0.520996 0 6.021 0 12.8043C0 18.2325 3.58125 22.8356 8.54687 24.4585C9.17187 24.5741 9.40104 24.1939 9.40104 23.8679C9.40104 23.5762 9.39062 22.8033 9.38542 21.7793C5.90833 22.52 5.175 20.1314 5.175 20.1314C4.60625 18.7137 3.78437 18.3345 3.78437 18.3345C2.65208 17.5731 3.87187 17.5887 3.87187 17.5887C5.12708 17.6741 5.78646 18.8543 5.78646 18.8543C6.90104 20.7325 8.7125 20.1897 9.42708 19.8762C9.53958 19.0814 9.86146 18.5408 10.2188 18.2335C7.44271 17.9262 4.525 16.87 4.525 12.1637C4.525 10.8231 5.00937 9.72725 5.81146 8.86787C5.67083 8.55745 5.24896 7.3085 5.92083 5.61683C5.92083 5.61683 6.96771 5.28766 9.35833 6.8762C10.3583 6.60329 11.4208 6.46787 12.4833 6.46162C13.5458 6.46787 14.6083 6.60329 15.6083 6.8762C17.9833 5.28766 19.0302 5.61683 19.0302 5.61683C19.7021 7.3085 19.2802 8.55745 19.1552 8.86787C19.9521 9.72725 20.4365 10.8231 20.4365 12.1637C20.4365 16.8825 17.5146 17.921 14.7333 18.2231C15.1708 18.5918 15.5771 19.345 15.5771 20.496C15.5771 22.1397 15.5615 23.4606 15.5615 23.8595C15.5615 24.1814 15.7802 24.5658 16.4208 24.4429C21.4219 22.8304 25 18.2241 25 12.8043C25 6.021 19.4031 0.520996 12.5 0.520996V0.520996Z" fill="white"/>
</g>
<defs>
<clipPath id="clip0">
<rect width="25" height="25" fill="white"/>
</clipPath>
</defs>
</svg>
