<svg width="100" height="85" viewBox="0 0 100 85" fill="none" xmlns="http://www.w3.org/2000/svg">
<g clip-path="url(#clip0)">
<g clip-path="url(#clip1)">
<path d="M7.72705 4.06381C6.01495 4.06381 4.62256 5.4562 4.62256 7.1683C4.62256 8.87985 6.01495 10.2728 7.72705 10.2728C9.4386 10.2728 10.8315 8.87985 10.8315 7.1683C10.8315 5.4562 9.4386 4.06381 7.72705 4.06381ZM7.72705 8.1594C7.18024 8.1594 6.7354 7.71457 6.7354 7.1683C6.7354 6.62149 7.18024 6.17665 7.72705 6.17665C8.27386 6.17665 8.71815 6.62149 8.71815 7.1683C8.71815 7.71457 8.27386 8.1594 7.72705 8.1594Z" fill="#4D6172"/>
<path d="M15.6365 4.06381C13.9244 4.06381 12.532 5.4562 12.532 7.1683C12.532 8.87985 13.9244 10.2728 15.6365 10.2728C17.3481 10.2728 18.7405 8.87985 18.7405 7.1683C18.741 5.4562 17.3481 4.06381 15.6365 4.06381ZM15.6365 8.1594C15.0897 8.1594 14.6449 7.71457 14.6449 7.1683C14.6449 6.62149 15.0897 6.17665 15.6365 6.17665C16.1828 6.17665 16.6276 6.62149 16.6276 7.1683C16.6276 7.71457 16.1833 8.1594 15.6365 8.1594Z" fill="#4D6172"/>
<path d="M23.5461 4.06381C21.834 4.06381 20.4416 5.4562 20.4416 7.1683C20.4416 8.87985 21.834 10.2728 23.5461 10.2728C25.2576 10.2728 26.6506 8.87985 26.6506 7.1683C26.6506 5.4562 25.2576 4.06381 23.5461 4.06381ZM23.5461 8.1594C22.9993 8.1594 22.5544 7.71457 22.5544 7.1683C22.5544 6.62149 22.9993 6.17665 23.5461 6.17665C24.0923 6.17665 24.5372 6.62149 24.5372 7.1683C24.5372 7.71457 24.0929 8.1594 23.5461 8.1594Z" fill="#4D6172"/>
<path d="M25.5939 19.3795H7.72705C7.1433 19.3795 6.67035 19.8525 6.67035 20.4362C6.67035 21.0194 7.1433 21.4924 7.72705 21.4924H25.5939C26.1776 21.4924 26.6506 21.0194 26.6506 20.4362C26.6506 19.8525 26.1776 19.3795 25.5939 19.3795Z" fill="#4D6172"/>
<path d="M25.5939 24.345H7.72705C7.1433 24.345 6.67035 24.8179 6.67035 25.4011C6.67035 25.9849 7.1433 26.4578 7.72705 26.4578H25.5939C26.1776 26.4578 26.6506 25.9849 26.6506 25.4011C26.6506 24.8179 26.1776 24.345 25.5939 24.345Z" fill="#4D6172"/>
<path d="M25.5939 29.3098H7.72705C7.1433 29.3098 6.67035 29.7828 6.67035 30.3665C6.67035 30.9497 7.1433 31.4227 7.72705 31.4227H25.5939C26.1776 31.4227 26.6506 30.9497 26.6506 30.3665C26.6506 29.7828 26.1776 29.3098 25.5939 29.3098Z" fill="#4D6172"/>
<path d="M25.5939 34.2753H7.72705C7.1433 34.2753 6.67035 34.7482 6.67035 35.332C6.67035 35.9152 7.1433 36.3881 7.72705 36.3881H25.5939C26.1776 36.3881 26.6506 35.9152 26.6506 35.332C26.6506 34.7482 26.1776 34.2753 25.5939 34.2753Z" fill="#4D6172"/>
<path d="M25.5939 39.2407H7.72705C7.1433 39.2407 6.67035 39.7136 6.67035 40.2968C6.67035 40.8806 7.1433 41.3535 7.72705 41.3535H25.5939C26.1776 41.3535 26.6506 40.8806 26.6506 40.2968C26.6506 39.7136 26.1776 39.2407 25.5939 39.2407Z" fill="#4D6172"/>
<path d="M25.5939 44.2061H7.72705C7.1433 44.2061 6.67035 44.6791 6.67035 45.2623C6.67035 45.8455 7.1433 46.319 7.72705 46.319H25.5939C26.1776 46.319 26.6506 45.8455 26.6506 45.2623C26.6506 44.6791 26.1776 44.2061 25.5939 44.2061Z" fill="#4D6172"/>
<path d="M25.5939 49.171H7.72705C7.1433 49.171 6.67035 49.6439 6.67035 50.2277C6.67035 50.8109 7.1433 51.2838 7.72705 51.2838H25.5939C26.1776 51.2838 26.6506 50.8109 26.6506 50.2277C26.6506 49.6439 26.1776 49.171 25.5939 49.171Z" fill="#4D6172"/>
<path d="M25.5939 54.1364H7.72705C7.1433 54.1364 6.67035 54.6094 6.67035 55.1926C6.67035 55.7763 7.1433 56.2492 7.72705 56.2492H25.5939C26.1776 56.2492 26.6506 55.7763 26.6506 55.1926C26.6506 54.6094 26.1776 54.1364 25.5939 54.1364Z" fill="#4D6172"/>
<path d="M25.5939 59.1018H7.72705C7.1433 59.1018 6.67035 59.5748 6.67035 60.158C6.67035 60.7417 7.1433 61.2147 7.72705 61.2147H25.5939C26.1776 61.2147 26.6506 60.7417 26.6506 60.158C26.6506 59.5748 26.1776 59.1018 25.5939 59.1018Z" fill="#4D6172"/>
<path d="M25.5939 64.0667H7.72705C7.1433 64.0667 6.67035 64.5397 6.67035 65.1234C6.67035 65.7066 7.1433 66.1796 7.72705 66.1796H25.5939C26.1776 66.1796 26.6506 65.7066 26.6506 65.1234C26.6506 64.5397 26.1776 64.0667 25.5939 64.0667Z" fill="#4D6172"/>
<path d="M30.6833 18.7159V66.8438C30.6833 67.427 31.1563 67.8999 31.74 67.8999C32.3232 67.8999 32.7962 67.427 32.7962 66.8438V18.7159C32.7962 18.1321 32.3232 17.6592 31.74 17.6592C31.1563 17.6592 30.6833 18.1321 30.6833 18.7159Z" fill="#4D6172"/>
<path d="M67.5933 0.000183105H4.65674C2.08914 0.000183105 0 2.08932 0 4.65692V67.5934C0 70.161 2.08914 72.2502 4.65674 72.2502H36.125C36.7087 72.2502 37.1817 71.7772 37.1817 71.1935C37.1817 70.6103 36.7087 70.1373 36.125 70.1373H4.65674C3.25387 70.1373 2.11284 68.9963 2.11284 67.5934V14.3959H70.1372V67.5934C70.1372 68.9963 68.9961 70.1373 67.5933 70.1373H42.6443C42.0606 70.1373 41.5882 70.6103 41.5882 71.1935C41.5882 71.7772 42.0611 72.2502 42.6443 72.2502H67.5933C70.1609 72.2502 72.25 70.161 72.25 67.5934V4.65692C72.25 2.08932 70.1609 0.000183105 67.5933 0.000183105V0.000183105ZM70.1372 12.2831H2.11284V4.65692C2.11284 3.25406 3.25443 2.11302 4.65674 2.11302H67.5933C68.9961 2.11302 70.1372 3.25406 70.1372 4.65692V12.2831Z" fill="#4D6172"/>
<path d="M63.1344 4.06381H56.9728C56.3896 4.06381 55.9167 4.53676 55.9167 5.11996C55.9167 5.7037 56.3896 6.17665 56.9728 6.17665H63.1344C63.7192 6.17665 64.1944 6.65181 64.1944 7.23666C64.1944 7.8215 63.7192 8.29721 63.1344 8.29721H35.071C34.4862 8.29721 34.0105 7.8215 34.0105 7.23666C34.0105 6.65181 34.4862 6.17665 35.071 6.17665H50.3995C50.9832 6.17665 51.4556 5.7037 51.4556 5.11996C51.4556 4.53676 50.9827 4.06381 50.3995 4.06381H35.071C33.3215 4.06381 31.8976 5.48707 31.8976 7.23666C31.8976 8.98679 33.3215 10.4101 35.071 10.4101H63.1344C64.884 10.4101 66.3072 8.98624 66.3072 7.23666C66.3078 5.48707 64.884 4.06381 63.1344 4.06381Z" fill="#4D6172"/>
<path d="M66.4721 21.5646C66.4721 20.3596 65.492 19.3795 64.287 19.3795H38.9131C37.7081 19.3795 36.728 20.3596 36.728 21.5646V31.1206C36.728 32.3256 37.7081 33.3057 38.9131 33.3057H64.287C65.492 33.3057 66.4721 32.325 66.4721 31.1206V21.5646ZM42.9359 31.1928L48.6152 25.5158L53.0476 30.5115C53.4351 30.9481 54.1026 30.9878 54.5392 30.6008C54.9487 30.237 55.0088 29.6262 54.6946 29.1919L56.808 27.079L60.4582 31.1928H42.9359ZM64.3592 31.1206C64.3592 31.1603 64.3267 31.1928 64.287 31.1928H63.2832L58.2406 25.5103C57.8945 25.12 57.3962 24.8868 56.8742 24.8714C56.3521 24.8549 55.8412 25.0583 55.4718 25.4276L53.2934 27.6049L50.0478 23.947C49.7011 23.5567 49.2033 23.3236 48.6808 23.3081C48.1632 23.2916 47.6478 23.495 47.2785 23.8643L39.9466 31.1928H38.9131C38.8728 31.1928 38.8409 31.1603 38.8409 31.1206V21.5646C38.8409 21.5249 38.8728 21.4924 38.9131 21.4924H64.287C64.3267 21.4924 64.3592 21.5249 64.3592 21.5646V31.1206Z" fill="#4D6172"/>
<path d="M37.7842 39.292H42.8494C43.4331 39.292 43.9055 38.819 43.9055 38.2358C43.9055 37.6521 43.4326 37.1791 42.8494 37.1791H37.7842C37.201 37.1791 36.728 37.6521 36.728 38.2358C36.728 38.819 37.201 39.292 37.7842 39.292Z" fill="#4D6172"/>
<path d="M56.6283 38.2358C56.6283 37.6521 56.1554 37.1791 55.5722 37.1791H46.3899C45.8061 37.1791 45.3332 37.6521 45.3332 38.2358C45.3332 38.819 45.8061 39.292 46.3899 39.292H55.5722C56.1554 39.292 56.6283 38.819 56.6283 38.2358Z" fill="#4D6172"/>
<path d="M65.4159 37.1791H59.8276C59.2439 37.1791 58.7709 37.6521 58.7709 38.2358C58.7709 38.819 59.2439 39.292 59.8276 39.292H65.4159C65.9991 39.292 66.4721 38.819 66.4721 38.2358C66.4721 37.6521 65.9991 37.1791 65.4159 37.1791Z" fill="#4D6172"/>
<path d="M37.7842 43.3104H44.2021C44.7858 43.3104 45.2582 42.8374 45.2582 42.2537C45.2582 41.6705 44.7853 41.1975 44.2021 41.1975H37.7842C37.201 41.1975 36.728 41.6705 36.728 42.2537C36.728 42.8369 37.201 43.3104 37.7842 43.3104Z" fill="#4D6172"/>
<path d="M48.3021 43.3104H59.1766C59.7603 43.3104 60.2327 42.8374 60.2327 42.2537C60.2327 41.6705 59.7598 41.1975 59.1766 41.1975H48.3021C47.7183 41.1975 47.2459 41.6705 47.2459 42.2537C47.2454 42.8369 47.7183 43.3104 48.3021 43.3104Z" fill="#4D6172"/>
<path d="M65.4159 41.197H62.92C62.3362 41.197 61.8638 41.6699 61.8638 42.2537C61.8638 42.8369 62.3368 43.3098 62.92 43.3098H65.4159C65.9991 43.3098 66.4721 42.8369 66.4721 42.2537C66.4721 41.6699 65.9991 41.197 65.4159 41.197Z" fill="#4D6172"/>
<path d="M66.4721 64.9321V48.4726C66.4721 47.2676 65.492 46.2875 64.287 46.2875H38.9131C37.7081 46.2875 36.728 47.2676 36.728 48.4726V64.9321C36.728 66.1366 37.7081 67.1172 38.9131 67.1172H64.287C65.492 67.1172 66.4721 66.1366 66.4721 64.9321ZM38.8409 64.9321V48.4726C38.8409 48.4323 38.8734 48.4004 38.9131 48.4004H64.287C64.3267 48.4004 64.3592 48.4323 64.3592 48.4726V64.9321C64.3592 64.9718 64.3267 65.0043 64.287 65.0043H38.9131C38.8734 65.0043 38.8409 64.9718 38.8409 64.9321Z" fill="#4D6172"/>
<path d="M55.2834 54.9324L49.9607 51.8593C49.3208 51.49 48.5568 51.49 47.9168 51.8593C47.2774 52.2286 46.8948 52.8901 46.8948 53.6288V59.7755C46.8948 60.5141 47.2774 61.1756 47.9168 61.5449C48.2371 61.7295 48.5876 61.8222 48.9388 61.8222C49.2894 61.8222 49.6405 61.7301 49.9607 61.5449L55.2834 58.4718C55.9233 58.1025 56.3053 57.441 56.3053 56.7024C56.3053 55.9632 55.9233 55.3017 55.2834 54.9324ZM49.0082 59.6547V53.7489L54.123 56.7024L49.0082 59.6547Z" fill="#4D6172"/>
</g>
<g clip-path="url(#clip2)">
<rect x="47.6" y="34.0002" width="51" height="51" rx="3" fill="white"/>
<path d="M97.75 44.2002H76.5V36.5502C76.5 35.8739 76.2313 35.2253 75.7531 34.7471C75.2749 34.2688 74.6263 34.0002 73.95 34.0002H50.15C49.4737 34.0002 48.8251 34.2688 48.3469 34.7471C47.8686 35.2253 47.6 35.8739 47.6 36.5502V82.4502C47.6 83.1265 47.8686 83.7751 48.3469 84.2533C48.8251 84.7315 49.4737 85.0002 50.15 85.0002H73.95C74.6263 85.0002 75.2749 84.7315 75.7531 84.2533C76.2313 83.7751 76.5 83.1265 76.5 82.4502V78.2002H80.75C80.9754 78.2002 81.1916 78.1106 81.351 77.9512C81.5104 77.7918 81.6 77.5756 81.6 77.3502V71.4002H97.75C97.9754 71.4002 98.1916 71.3106 98.351 71.1512C98.5104 70.9918 98.6 70.7756 98.6 70.5502V45.0502C98.6 44.8247 98.5104 44.6085 98.351 44.4491C98.1916 44.2897 97.9754 44.2002 97.75 44.2002ZM96.9 51.0002H71.4V45.9002H96.9V51.0002ZM79.9 57.8002H54.4V52.7002H79.9V57.8002ZM70.3111 35.7002L69.8861 37.4002H54.2138L53.7888 35.7002H70.3111ZM74.8 82.4502C74.8 82.6756 74.7104 82.8918 74.551 83.0512C74.3916 83.2106 74.1754 83.3002 73.95 83.3002H50.15C49.9245 83.3002 49.7083 83.2106 49.5489 83.0512C49.3895 82.8918 49.3 82.6756 49.3 82.4502V36.5502C49.3 36.3247 49.3895 36.1085 49.5489 35.9491C49.7083 35.7897 49.9245 35.7002 50.15 35.7002H52.0361L52.7255 38.4559C52.7714 38.6399 52.8774 38.8032 53.0268 38.9199C53.1762 39.0367 53.3604 39.1001 53.55 39.1002H70.55C70.7396 39.1001 70.9237 39.0367 71.0731 38.9199C71.2225 38.8032 71.3286 38.6399 71.3745 38.4559L72.0638 35.7002H73.95C74.1754 35.7002 74.3916 35.7897 74.551 35.9491C74.7104 36.1085 74.8 36.3247 74.8 36.5502V44.2002H70.55C70.3245 44.2002 70.1083 44.2897 69.9489 44.4491C69.7895 44.6085 69.7 44.8247 69.7 45.0502V51.0002H53.55C53.3245 51.0002 53.1083 51.0897 52.9489 51.2491C52.7895 51.4085 52.7 51.6248 52.7 51.8502V77.3502C52.7 77.5756 52.7895 77.7918 52.9489 77.9512C53.1083 78.1106 53.3245 78.2002 53.55 78.2002H74.8V82.4502ZM54.4 76.5002V59.5002H79.9V76.5002H54.4ZM81.6 69.7002V52.7002H96.9V69.7002H81.6Z" fill="#4D6172"/>
<path d="M74.8 47.6002H76.5V49.3002H74.8V47.6002Z" fill="#4D6172"/>
<path d="M78.2 47.6002H79.9V49.3002H78.2V47.6002Z" fill="#4D6172"/>
<path d="M81.6 47.6002H83.3V49.3002H81.6V47.6002Z" fill="#4D6172"/>
<path d="M91.8 47.6002H93.5V49.3002H91.8V47.6002Z" fill="#4D6172"/>
<path d="M88.1509 55.4992L86.949 56.7011L91.4481 61.2002L86.949 65.6992L88.1509 66.9011L93.2509 61.8011C93.4103 61.6417 93.4998 61.4256 93.4998 61.2002C93.4998 60.9748 93.4103 60.7586 93.2509 60.5992L88.1509 55.4992Z" fill="#4D6172"/>
<path d="M81.6157 67.7967L85.0081 54.199L86.6571 54.6104L83.2647 68.2081L81.6157 67.7967Z" fill="#4D6172"/>
<path d="M57.8 54.4002H59.5V56.1002H57.8V54.4002Z" fill="#4D6172"/>
<path d="M61.2 54.4002H62.9V56.1002H61.2V54.4002Z" fill="#4D6172"/>
<path d="M64.6 54.4002H66.3V56.1002H64.6V54.4002Z" fill="#4D6172"/>
<path d="M74.8 54.4002H76.5V56.1002H74.8V54.4002Z" fill="#4D6172"/>
<path d="M63.149 62.2992L58.049 67.3992C57.8897 67.5586 57.8002 67.7748 57.8002 68.0002C57.8002 68.2256 57.8897 68.4417 58.049 68.6011L63.149 73.7011L64.3509 72.4992L59.8519 68.0002L64.3509 63.5011L63.149 62.2992Z" fill="#4D6172"/>
<path d="M71.1509 62.2992L69.949 63.5011L74.4481 68.0002L69.949 72.4992L71.1509 73.7011L76.2509 68.6011C76.4103 68.4417 76.4998 68.2256 76.4998 68.0002C76.4998 67.7748 76.4103 67.5586 76.2509 67.3992L71.1509 62.2992Z" fill="#4D6172"/>
<path d="M64.6174 74.5916L68.0098 60.994L69.6588 61.4054L66.2664 75.003L64.6174 74.5916Z" fill="#4D6172"/>
</g>
</g>
<defs>
<clipPath id="clip0">
<rect width="100" height="85" fill="white"/>
</clipPath>
<clipPath id="clip1">
<rect y="0.000183105" width="72.25" height="72.25" fill="white"/>
</clipPath>
<clipPath id="clip2">
<rect x="47.6" y="34.0002" width="51" height="51" rx="3" fill="white"/>
</clipPath>
</defs>
</svg>
