<svg width="100" height="85" viewBox="0 0 100 85" fill="none" xmlns="http://www.w3.org/2000/svg">
<g clip-path="url(#clip0)">
<g clip-path="url(#clip1)">
<path d="M44.8333 0.793523C38.1089 1.70019 30.2511 4.87352 24.8111 8.95352C9.92666 20.0224 4.18443 40.5735 11.1355 57.8002C12.4578 61.0869 12.9111 61.6913 13.8178 61.3513C14.6489 61.0491 14.5733 60.6713 12.76 56.0246C9.13332 46.6935 9.5111 35.1713 13.8178 25.878C17.9733 16.8869 25.68 9.40685 34.7089 5.66686C40.98 3.06019 48.9889 2.04018 55.6378 2.98463C62.06 3.92908 68.86 6.80019 73.9978 10.6913L76.5666 12.6557L72.4111 12.8446C68.5578 13.0335 68.2555 13.1091 68.2555 13.7891C68.2555 14.5069 68.5578 14.5446 74.2244 14.658L80.1933 14.7713L80.08 8.80241C79.9666 3.13574 79.9289 2.83352 79.2111 2.83352C78.4933 2.83352 78.4555 3.13574 78.3422 7.06463L78.2289 11.258L75.1311 8.91574C70.1444 5.17574 64.0244 2.45574 57.8666 1.28463C54.1644 0.566851 48.12 0.340185 44.8333 0.793523Z" fill="#4D6172"/>
<path d="M44.9844 15.4891C39.5822 16.358 33.3489 19.6069 29.6467 23.5357C24.4711 29.0135 21.6 36.8713 22.1666 43.9357C22.9978 53.9091 28.4378 62.1069 37.1644 66.5269C44.5311 70.2669 54.24 70.1535 61.5689 66.3002C70.7111 61.5024 76.0378 52.7002 76.1133 42.3113C76.1511 29.9202 67.84 19.1535 55.7889 16.0557C52.9555 15.338 47.7422 15.0357 44.9844 15.4891ZM47.6667 21.118V24.858L44.4555 25.1224C42.68 25.2735 40.3 25.6135 39.1667 25.878C38.0333 26.1424 37.0889 26.2557 37.0889 26.1046C37.0889 25.9913 37.7689 24.3291 38.6378 22.4024C40.1867 19.0024 40.2622 18.8891 41.9622 18.3602C43.8889 17.7557 45.06 17.4913 46.6467 17.4157L47.6667 17.378V21.118ZM55.3733 18.1335C64.2889 20.4002 71.58 27.8802 73.5444 36.8335C74.9044 42.8402 73.8089 49.7157 70.6355 55.0802C69.0489 57.8002 64.6667 62.1824 61.9467 63.7691C59.0755 65.4691 54.9955 66.8291 52.0111 67.1313L49.5555 67.358V60.6713V54.0224H50.4622C51.2178 54.0224 51.4822 54.3246 51.9733 55.8357L52.6155 57.6869L54.5044 57.3846C55.5244 57.2335 56.9222 56.8935 57.64 56.6291C58.8867 56.1757 58.8867 56.1757 58.5467 54.438C58.2444 52.8135 58.2822 52.6624 59.2267 51.8691L60.2467 51.0757L61.9089 51.8691L63.6089 52.7002L64.3644 51.7557C64.78 51.2269 65.5355 49.9802 66.0644 48.9602C66.8955 47.298 66.9333 47.0713 66.4044 46.7691C64.7044 45.8246 63.9867 44.7669 64.1755 43.5957C64.3267 42.538 64.5911 42.3113 66.0644 41.8957L67.7644 41.4424L67.5378 39.5535C67.3867 38.4957 67.0467 37.0602 66.7444 36.3802C66.2155 35.1335 66.1778 35.0957 64.3644 35.3602C62.6644 35.5869 62.4755 35.5113 61.8711 34.5669C61.1911 33.5469 61.1911 33.4713 61.9467 31.8846L62.74 30.2602L61.5311 29.3157C60.8889 28.8246 59.6044 28.0691 58.7733 27.6157L57.1867 26.8602L56.2044 28.3335C54.6555 30.6757 52.7289 30.298 51.8222 27.4646C51.4822 26.3691 51.18 26.0669 50.4622 26.0669H49.5555V21.7224V17.378H50.9911C51.8222 17.378 53.7489 17.718 55.3733 18.1335ZM35.7667 23.838C34.86 26.0669 34.2178 27.1246 33.6133 27.3513C33.1222 27.5402 31.5733 28.258 30.1378 28.9757C28.7022 29.6557 27.4555 30.1469 27.38 30.0713C27.1533 29.8446 30.5155 25.5757 32.0267 24.1402C33.6889 22.5913 36.7489 20.3246 36.9378 20.5135C37.0133 20.5891 36.4844 22.0624 35.7667 23.838ZM47.6667 34.5669V41.9335H40.8667H34.0667V41.0646C34.0667 39.478 34.86 33.8491 35.4267 31.2802C35.9933 28.7491 36.0311 28.7113 37.5422 28.2957C40.4133 27.5402 42.1889 27.2757 44.9467 27.238L47.6667 27.2002V34.5669ZM50.6133 29.8069C51.0289 31.1291 51.2178 31.2802 52.6533 31.5069C53.56 31.6202 54.6178 31.8091 55.0711 31.9602C55.6755 32.1113 56.0533 31.8469 56.7711 30.8269C57.7911 29.278 58.2067 29.2024 59.4155 30.1846C60.2844 30.8646 60.2844 30.9024 59.6044 32.3757L58.9622 33.8491L60.2089 35.7757L61.4555 37.7024L63.1933 37.5135C65.0444 37.2869 65.1955 37.3624 65.5733 38.9869C65.8 39.9313 65.6867 40.0446 64.2511 40.4602C63.3822 40.7246 62.6644 41.1402 62.5889 41.3291C62.5511 41.5557 62.3244 42.6513 62.1355 43.7469L61.7578 45.7491L63.1933 46.8069L64.6289 47.8269L63.9111 49.0357L63.1555 50.2446L61.6444 49.4891L60.1333 48.7335L58.2067 50.1313L56.28 51.4913L56.5067 53.3424C56.6578 54.3624 56.62 55.1557 56.4311 55.1557C56.2422 55.1557 55.5622 55.2691 54.9578 55.3824C53.9 55.6091 53.7867 55.5335 53.3333 53.8713C52.88 52.2469 52.8044 52.1713 51.2933 52.058L49.7444 51.9446L49.6311 50.1313L49.5178 48.318L50.8778 48.5824C54.9955 49.338 58.7733 46.0135 58.7355 41.6691C58.6978 37.7402 55.5622 34.8691 51.5578 35.2091L49.5555 35.398V31.8469C49.5555 29.9202 49.7067 28.3335 49.8578 28.3335C50.0467 28.3335 50.3867 28.9757 50.6133 29.8069ZM33.5378 30.4491C33.0844 31.6202 32.1778 37.9669 32.1778 39.9313V41.9335H28.1733H24.1311L24.3578 39.5535C24.4711 38.2691 24.8489 36.3424 25.1889 35.2469L25.7555 33.2824L29.2689 31.5824C33.1222 29.7313 33.8778 29.5424 33.5378 30.4491ZM54.6933 37.778C56.3933 38.8735 57.3755 41.3669 56.7333 43.218C55.9022 45.7491 52.88 47.3735 50.5755 46.5046L49.5555 46.0891V41.9713C49.5555 38.4202 49.6689 37.778 50.2355 37.438C51.2933 36.7957 53.3333 36.9846 54.6933 37.778ZM32.6311 48.4313C32.9711 50.7735 33.3867 53.0024 33.5 53.3424C33.9155 54.3624 33.1222 54.1735 29.1555 52.2091C25.2267 50.2824 25.0378 49.9802 24.4333 45.9757L24.1689 44.2002H28.0978H32.0267L32.6311 48.4313ZM47.6667 50.4713V56.7802L44.5689 56.5535C42.8311 56.4402 40.2244 56.1002 38.7511 55.7602L36.0689 55.118L35.4644 52.5869C35.1244 51.1891 34.7467 49.1113 34.6333 47.978C34.52 46.8446 34.3311 45.5224 34.2178 45.0313L34.0667 44.2002H40.8667H47.6667V50.4713ZM31.0067 55.3069C32.9333 56.138 34.5955 57.0824 34.7089 57.3846C34.8222 57.7246 35.5022 59.3491 36.1822 60.9735C36.9 62.6357 37.3911 64.0335 37.3155 64.1469C36.9378 64.5246 32.7822 61.3135 30.7422 59.1224C28.74 56.9313 26.36 53.3802 27.1155 53.6824C27.3044 53.758 29.0422 54.5135 31.0067 55.3069ZM44.9467 58.7446L47.6667 59.0091V63.1269C47.6667 67.8869 47.9311 67.6602 43.4355 66.6402L40.7911 66.0357L39.1667 62.5602C36.6355 57.158 36.5978 57.4602 39.62 58.0269C41.0555 58.2535 43.4355 58.5935 44.9467 58.7446Z" fill="#4D6172"/>
<path d="M84.0844 20.9291C83.9711 21.2313 84.5378 22.7802 85.3689 24.4046C89.6378 32.9424 90.7333 42.9913 88.3533 52.1335C83.5933 70.3424 66.5556 82.8846 47.8933 81.8646C39.3556 81.3735 30.8178 78.0869 24.4333 72.7602L23.3 71.8157L27.1156 71.778C30.0622 71.778 31.0445 71.6269 31.4222 71.2113C31.8 70.758 31.8 70.5313 31.4222 70.078C31.0445 69.6246 29.8733 69.5113 25.34 69.5113H19.7111V75.5935V81.638L20.58 81.5246C21.3733 81.4113 21.4111 81.2224 21.6 77.3691L21.7889 73.3269L24.4333 75.4046C29.5333 79.3713 37.0511 82.5824 43.4733 83.4891C48.3845 84.2069 56.5067 83.7913 60.8511 82.5824C76.2644 78.2757 87.6356 66.0735 90.96 50.2446C91.7533 46.4669 91.8289 38.8357 91.1489 35.1335C90.3933 31.0913 89.26 27.578 87.4844 23.8757C86.2 21.1935 85.6333 20.4002 85.0667 20.4002C84.6133 20.4002 84.1978 20.6268 84.0844 20.9291Z" fill="#4D6172"/>
</g>
</g>
<defs>
<clipPath id="clip0">
<rect width="100" height="85" fill="white"/>
</clipPath>
<clipPath id="clip1">
<rect x="8" y="0.000183105" width="85" height="85" fill="white"/>
</clipPath>
</defs>
</svg>
