<svg width="94" height="86" viewBox="0 0 94 86" fill="none" xmlns="http://www.w3.org/2000/svg">
<path d="M23.7255 30.5016H58.2567C58.9912 30.5016 59.5848 29.9066 59.5848 29.1735V7.92346C59.5848 7.19034 58.9912 6.59534 58.2567 6.59534L23.7255 6.59534C22.991 6.59534 22.3973 7.19034 22.3973 7.92346V29.1735C22.3973 29.9066 22.991 30.5016 23.7255 30.5016ZM25.0536 9.25159H56.9286V27.8453H25.0536V9.25159Z" fill="white"/>
<path d="M35.7623 12.7698L32.503 21.4637L29.9769 18.9376L28.099 20.8156L32.0833 24.7999C32.3344 25.051 32.673 25.1891 33.0223 25.1891C33.1153 25.1891 33.2109 25.1798 33.3039 25.1599C33.7448 25.0642 34.1074 24.7508 34.2668 24.3285L37.9271 14.5641H54.2723V11.9078H37.0067C36.4529 11.9078 35.9575 12.2518 35.7623 12.7698Z" fill="white"/>
<path d="M46.6927 16.2815L44.9755 17.9988L43.2582 16.2815L41.3802 18.1595L43.6473 20.4266V25.1892H46.3036V20.4266L48.5707 18.1595L46.6927 16.2815Z" fill="white"/>
<path d="M88.8036 41.1266C88.8036 39.914 88.3321 38.7758 87.4755 37.9205L86.6972 37.1422C84.9826 35.4303 81.9996 35.4289 80.285 37.1422L64.8973 52.5299V2.61096C64.8973 1.87784 64.3037 1.28284 63.5692 1.28284L10.4442 1.28284C8.2475 1.28284 6.45984 3.07049 6.45984 5.26721L6.45984 69.0172V71.6735C6.45984 73.8702 8.2475 75.6578 10.4442 75.6578H44.1547L41.1319 81.7048C40.8769 82.2161 40.9765 82.8337 41.3816 83.2374C41.6352 83.4924 41.9752 83.6266 42.3192 83.6266C42.5211 83.6266 42.7243 83.5814 42.9129 83.4871L53.5379 78.1746L53.5299 78.16C53.6548 78.0976 53.7783 78.0299 53.8819 77.9263L56.1503 75.6578H63.5692C64.3037 75.6578 64.8973 75.0642 64.8973 74.3297V66.9108L75.9115 77.9249C76.0151 78.0285 76.1399 78.0963 76.2634 78.1587L76.2555 78.1733L86.8805 83.4858C87.0704 83.5814 87.2736 83.6266 87.4755 83.6266C87.8195 83.6266 88.1594 83.4924 88.4145 83.2374C88.8195 82.8324 88.9191 82.2148 88.6641 81.7048L83.3516 71.0798L83.337 71.0878C83.2746 70.9629 83.2069 70.8394 83.1033 70.7358L72.0878 59.7203L87.4755 44.3327C88.3321 43.4774 88.8036 42.3392 88.8036 41.1266ZM62.2411 49.8736L49.5097 37.1422C47.7951 35.4303 44.8121 35.4289 43.0975 37.1422L42.3192 37.9192C41.4626 38.7758 40.9911 39.914 40.9911 41.1266C40.9911 42.3392 41.4626 43.4774 42.3192 44.3327L57.7069 59.7203L49.7381 67.6891H19.7411V3.93909L62.2411 3.93909V49.8736ZM44.1972 42.4547C43.8412 42.1001 43.6473 41.6286 43.6473 41.1266C43.6473 40.6246 43.8412 40.1531 44.1972 39.7985L44.9755 39.0215C45.3314 38.6656 45.8016 38.4703 46.3036 38.4703C46.8056 38.4703 47.2758 38.6656 47.6317 39.0202L51.0662 42.4547L47.6317 45.8892L44.1972 42.4547ZM9.11609 5.26721C9.11609 4.53541 9.71109 3.93909 10.4442 3.93909L17.0848 3.93909V67.6891H9.11609L9.11609 5.26721ZM10.4442 73.0016C9.71109 73.0016 9.11609 72.4066 9.11609 71.6735V70.3453H47.0819L46.6927 70.7345C46.5891 70.8381 46.5214 70.9616 46.459 71.0864L46.4444 71.0785L45.4828 73.0016H10.4442ZM47.9956 73.9153L50.7023 76.6221L45.2889 79.3288L47.9956 73.9153ZM52.9442 75.108L49.5097 71.6735L59.5848 61.5983L63.0194 65.0328L52.9442 75.108ZM62.2411 73.0016H58.8066L62.2411 69.5671V73.0016ZM79.0923 76.6221L81.7991 73.9153L84.5058 79.3288L79.0923 76.6221ZM76.8505 75.108L49.5097 47.7672L52.9442 44.3327L80.285 71.6735L76.8505 75.108ZM66.7753 54.4078L76.8505 44.3327L80.285 47.7672L70.2098 57.8424L66.7753 54.4078ZM85.5975 42.4547L82.163 45.8892L78.7284 42.4547L82.163 39.0215C82.8735 38.311 84.1087 38.311 84.8192 39.0215L85.5975 39.7985C85.9534 40.1531 86.1473 40.6246 86.1473 41.1266C86.1473 41.6286 85.9534 42.1001 85.5975 42.4547Z" fill="white"/>
<path d="M87.4755 6.59534L83.4911 6.59534V2.61096C83.4911 1.87784 82.8974 1.28284 82.163 1.28284H76.8505C76.116 1.28284 75.5223 1.87784 75.5223 2.61096V6.59534H71.538C70.8035 6.59534 70.2098 7.19034 70.2098 7.92346V13.236C70.2098 13.9691 70.8035 14.5641 71.538 14.5641H75.5223V18.5485C75.5223 19.2816 76.116 19.8766 76.8505 19.8766H82.163C82.8974 19.8766 83.4911 19.2816 83.4911 18.5485V14.5641H87.4755C88.2099 14.5641 88.8036 13.9691 88.8036 13.236V7.92346C88.8036 7.19034 88.2099 6.59534 87.4755 6.59534ZM86.1473 11.9078H82.163C81.4285 11.9078 80.8348 12.5028 80.8348 13.236V17.2203H78.1786V13.236C78.1786 12.5028 77.5849 11.9078 76.8505 11.9078H72.8661V9.25159H76.8505C77.5849 9.25159 78.1786 8.65659 78.1786 7.92346V3.93909L80.8348 3.93909V7.92346C80.8348 8.65659 81.4285 9.25159 82.163 9.25159H86.1473V11.9078Z" fill="white"/>
<path d="M87.4755 25.1891H71.538C70.8035 25.1891 70.2098 25.7841 70.2098 26.5172V31.8297C70.2098 32.5628 70.8035 33.1578 71.538 33.1578H87.4755C88.2099 33.1578 88.8036 32.5628 88.8036 31.8297V26.5172C88.8036 25.7841 88.2099 25.1891 87.4755 25.1891ZM86.1473 30.5016H72.8661V27.8453H86.1473V30.5016Z" fill="white"/>
</svg>
