<svg width="100" height="85" viewBox="0 0 100 85" fill="none" xmlns="http://www.w3.org/2000/svg">
<g clip-path="url(#clip0)">
<g clip-path="url(#clip1)">
<rect x="8" y="0.000183105" width="85" height="85" fill="white"/>
<path d="M78.1423 27.6425C78.1423 12.4414 65.8723 0.106271 50.6961 0.000851503C35.4448 -0.105066 22.8576 12.3911 22.8578 27.6428C22.858 37.3032 27.814 45.8052 35.3219 50.7472C37.2616 52.024 38.4066 54.2114 38.4066 56.5337V61.1589H62.5936V56.5006C62.5936 54.1756 63.765 52.0099 65.7056 50.7293C73.1982 45.7846 78.1423 37.2913 78.1423 27.6425Z" fill="#FFE07D"/>
<path d="M69.9247 7.97839C72.4437 12.3438 73.8855 17.4092 73.8855 22.8116C73.8855 39.2265 60.5785 52.5335 44.1636 52.5335C41.412 52.5335 38.7486 52.158 36.2197 51.4582C37.6084 52.7573 38.4065 54.5976 38.4065 56.5336V61.1588H62.5935V56.5006C62.5935 54.1756 63.7649 52.0099 65.7054 50.7292C73.198 45.7846 78.1423 37.2914 78.1423 27.6426C78.1423 19.9483 74.9975 12.9897 69.9247 7.97839Z" fill="#FFD064"/>
<path d="M61.557 76.7076H39.4431C38.489 76.7076 37.7153 75.9341 37.7153 74.98V67.0328H63.2844V74.98C63.2846 75.9341 62.5111 76.7076 61.557 76.7076Z" fill="#F1F4F6"/>
<path d="M59.3975 67.0327V74.9798C59.3975 75.9339 58.624 76.7074 57.6699 76.7074H61.5572C62.5113 76.7074 63.2849 75.9339 63.2849 74.9798V67.0327H59.3975Z" fill="#DFEAEF"/>
<path d="M62.9391 67.0326H38.061C37.1069 67.0326 36.3333 66.2592 36.3333 65.3051V62.8864C36.3333 61.9323 37.1067 61.1588 38.061 61.1588H62.9391C63.8932 61.1588 64.6667 61.9323 64.6667 62.8864V65.3051C64.6667 66.2592 63.8932 67.0326 62.9391 67.0326Z" fill="#665E66"/>
<path d="M62.9391 61.1587H57.682C58.6361 61.1587 59.4096 61.9322 59.4096 62.8862V65.3049C59.4096 66.259 58.6361 67.0325 57.682 67.0325H62.9391C63.8932 67.0325 64.6666 66.259 64.6666 65.3049V62.8862C64.6666 61.9322 63.8932 61.1587 62.9391 61.1587Z" fill="#544F57"/>
<path d="M56.2588 85.0002H44.7411C44.0437 85.0002 43.4147 84.5808 43.1464 83.937L40.134 76.7076H60.8657L57.8534 83.937C57.5854 84.5808 56.9562 85.0002 56.2588 85.0002Z" fill="#665E66"/>
<path d="M56.4604 76.7076L53.448 83.937C53.1797 84.5808 52.5507 85.0002 51.8533 85.0002H56.2588C56.9563 85.0002 57.5853 84.5808 57.8536 83.937L60.8659 76.7076H56.4604Z" fill="#544F57"/>
<path d="M52.0583 38.3651H54.6238V61.1589H52.0583V38.3651Z" fill="#544F57"/>
<path d="M46.3765 38.3651H48.9419V61.1589H46.3765V38.3651Z" fill="#544F57"/>
<path d="M68.8251 28.7358V24.8213C68.8251 24.3187 68.4611 23.89 67.965 23.8087L64.0075 23.1599C63.6323 23.0984 63.3244 22.8335 63.202 22.4737C63.0124 21.9166 62.7872 21.3759 62.5288 20.8542C62.3597 20.5126 62.3896 20.1065 62.612 19.7967L64.9532 16.5375C65.2463 16.1293 65.2007 15.5686 64.8453 15.2132L62.0773 12.4452C61.7218 12.0898 61.1612 12.0441 60.753 12.3375L57.4938 14.6786C57.1841 14.9011 56.7779 14.931 56.4362 14.7618C55.9146 14.5035 55.3739 14.2782 54.8168 14.0886C54.4568 13.9661 54.192 13.6581 54.1306 13.2831L53.4818 9.32561C53.4005 8.82956 52.9718 8.46548 52.4691 8.46548H48.5546C48.0519 8.46548 47.6233 8.82956 47.5419 9.32561L46.8932 13.2831C46.8317 13.6583 46.5668 13.9662 46.207 14.0886C45.6499 14.2782 45.1091 14.5035 44.5875 14.7618C44.2459 14.931 43.8398 14.9011 43.53 14.6786L40.2708 12.3375C39.8626 12.0443 39.3019 12.0899 38.9465 12.4452L36.1785 15.2132C35.8231 15.5686 35.7774 16.1293 36.0706 16.5375L38.4117 19.7967C38.6342 20.1063 38.6641 20.5126 38.4949 20.8542C38.2366 21.3759 38.0113 21.9166 37.8217 22.4737C37.6992 22.8336 37.3912 23.0984 37.0162 23.1599L33.0587 23.8087C32.5627 23.89 32.1986 24.3187 32.1986 24.8213V28.7358C32.1986 29.2385 32.5627 29.6672 33.0587 29.7485L37.0162 30.3973C37.3914 30.4587 37.6994 30.7237 37.8217 31.0835C38.0113 31.6406 38.2366 32.1813 38.4949 32.7029C38.6641 33.0446 38.6342 33.4507 38.4117 33.7605L36.0706 37.0197C35.7774 37.4279 35.8231 37.9885 36.1785 38.344L38.9465 41.112C39.3019 41.4674 39.8626 41.5131 40.2708 41.2197L43.53 38.8786C43.8396 38.6561 44.2459 38.6262 44.5875 38.7954C45.1091 39.0537 45.6499 39.279 46.207 39.4686C46.5669 39.5911 46.8317 39.8991 46.8932 40.2741L47.5419 44.2316C47.6233 44.7276 48.0519 45.0917 48.5546 45.0917H52.4691C52.9718 45.0917 53.4005 44.7276 53.4818 44.2316L54.1306 40.2741C54.192 39.8989 54.457 39.5909 54.8168 39.4686C55.3739 39.279 55.9146 39.0537 56.4362 38.7954C56.7779 38.6262 57.184 38.6561 57.4938 38.8786L60.753 41.2197C61.1612 41.5129 61.7218 41.4672 62.0773 41.112L64.8453 38.344C65.2007 37.9885 65.2463 37.4279 64.9532 37.0197L62.612 33.7605C62.3896 33.4508 62.3597 33.0446 62.5288 32.7029C62.7872 32.1813 63.0124 31.6406 63.202 31.0835C63.3246 30.7235 63.6325 30.4587 64.0075 30.3973L67.965 29.7485C68.4611 29.6672 68.8251 29.2385 68.8251 28.7358ZM50.5121 30.3518C48.5387 30.3518 46.9388 28.7519 46.9388 26.7785C46.9388 24.8051 48.5387 23.2052 50.5121 23.2052C52.4856 23.2052 54.0854 24.8049 54.0854 26.7785C54.0854 28.7521 52.4857 30.3518 50.5121 30.3518Z" fill="#4D6172"/>
<path d="M67.965 23.8088L64.0075 23.16C63.6323 23.0986 63.3243 22.8336 63.202 22.4739C63.191 22.4415 63.1786 22.4098 63.1675 22.3774C62.3713 31.4231 55.1741 38.6302 46.1329 39.4418C46.1578 39.4505 46.1824 39.4601 46.2073 39.4686C46.5672 39.5911 46.832 39.899 46.8935 40.2741L47.5422 44.2316C47.6236 44.7276 48.0522 45.0917 48.5549 45.0917H52.4694C52.9721 45.0917 53.4008 44.7276 53.4821 44.2316L54.1309 40.2741C54.1923 39.8989 54.4573 39.5909 54.8172 39.4686C55.3744 39.279 55.9151 39.0537 56.4367 38.7954C56.7784 38.6262 57.1846 38.6561 57.4942 38.8785L60.7534 41.2197C61.1617 41.5129 61.7223 41.4674 62.0777 41.112L64.8457 38.344C65.2012 37.9885 65.2468 37.4279 64.9535 37.0197L62.6123 33.7604C62.3898 33.4508 62.36 33.0448 62.5291 32.7029C62.7875 32.1813 63.0127 31.6406 63.2023 31.0834C63.3247 30.7235 63.6328 30.4587 64.0078 30.3973L67.9653 29.7485C68.4614 29.6672 68.8254 29.2385 68.8254 28.7358V24.8215C68.8251 24.3188 68.461 23.8901 67.965 23.8088Z" fill="#4D6172"/>
<path d="M50.5122 36.0357C45.4078 36.0357 41.2551 31.883 41.2551 26.7787C41.2551 21.6744 45.4078 17.5216 50.5122 17.5216C55.6165 17.5216 59.7694 21.6744 59.7694 26.7787C59.7694 31.883 55.6165 36.0357 50.5122 36.0357ZM50.5122 20.0119C46.781 20.0119 43.7454 23.0475 43.7454 26.7787C43.7454 30.5099 46.781 33.5455 50.5122 33.5455C54.2435 33.5455 57.2791 30.5099 57.2791 26.7787C57.2791 23.0475 54.2435 20.0119 50.5122 20.0119Z" fill="#D0E2E7"/>
</g>
</g>
<defs>
<clipPath id="clip0">
<rect width="100" height="85" fill="white"/>
</clipPath>
<clipPath id="clip1">
<rect x="8" y="0.000183105" width="85" height="85" fill="white"/>
</clipPath>
</defs>
</svg>
