<svg width="19" height="19" viewBox="0 0 19 19" fill="none" xmlns="http://www.w3.org/2000/svg">
<path d="M9.50024 0.00915766C5.60905 0.00915766 1.91398 -0.336713 0.502609 3.28262C-0.0803723 4.77747 0.00428869 6.71884 0.00428869 9.49866C0.00428869 11.938 -0.0739423 14.2306 0.502609 15.7136C1.91077 19.3351 5.63584 18.9882 9.49809 18.9882C13.2242 18.9882 17.0661 19.3758 18.4946 15.7136C19.0787 14.2038 18.993 12.2913 18.993 9.49866C18.993 5.79152 19.1977 3.39827 17.3983 1.60145C15.5765 -0.218925 13.1128 0.00915766 9.49595 0.00915766H9.50024ZM8.64934 1.71924C16.7661 1.70639 17.7991 0.80477 17.229 13.33C17.0265 17.7599 13.6508 17.2738 9.50131 17.2738C1.93541 17.2738 1.71787 17.0575 1.71787 9.49438C1.71787 1.84345 2.31799 1.72352 8.64934 1.7171V1.71924ZM14.5692 3.2944C13.9401 3.2944 13.43 3.8041 13.43 4.43267C13.43 5.06123 13.9401 5.57094 14.5692 5.57094C15.1982 5.57094 15.7083 5.06123 15.7083 4.43267C15.7083 3.8041 15.1982 3.2944 14.5692 3.2944V3.2944ZM9.50024 4.62541C6.80716 4.62541 4.6242 6.80772 4.6242 9.49866C4.6242 12.1896 6.80716 14.3708 9.50024 14.3708C12.1933 14.3708 14.3752 12.1896 14.3752 9.49866C14.3752 6.80772 12.1933 4.62541 9.50024 4.62541V4.62541ZM9.50024 6.33549C13.6851 6.33549 13.6904 12.6618 9.50024 12.6618C5.31649 12.6618 5.31006 6.33549 9.50024 6.33549Z" fill="white"/>
</svg>
