<svg id="Layer_5" enable-background="new 0 0 64 64" height="512" viewBox="0 0 64 64" width="512" xmlns="http://www.w3.org/2000/svg"><g><path d="m46 15c-6.065 0-11 4.935-11 11s4.935 11 11 11 11-4.935 11-11-4.935-11-11-11zm0 20c-4.962 0-9-4.037-9-9s4.038-9 9-9 9 4.037 9 9-4.038 9-9 9z"/><path d="m46 21c-2.757 0-5 2.243-5 5s2.243 5 5 5 5-2.243 5-5-2.243-5-5-5zm0 8c-1.654 0-3-1.346-3-3s1.346-3 3-3 3 1.346 3 3-1.346 3-3 3z"/><path d="m63 29.729v-7.459l-2.734-.876c-.248-.772-.556-1.519-.919-2.229l1.312-2.549-5.274-5.274-2.385 1.226v-11.568h-35.414l-10.586 10.586v37.494c-3.387.488-6 3.401-6 6.92 0 3.859 3.14 7 7 7h44.231l9.36-4.571.091-.051c.825-.516 1.318-1.405 1.318-2.378s-.493-1.862-1.318-2.378l-8.682-4.246v-9.945l2.384 1.226 5.274-5.273-1.312-2.549c.363-.709.67-1.455.919-2.229zm-12-17.85c-.132-.047-.26-.101-.394-.144l-.877-2.735h-7.459l-.876 2.734c-.774.249-1.52.557-2.229.919l-2.549-1.312-5.274 5.274 1.312 2.549c-.363.711-.671 1.457-.919 2.229l-2.735.878v7.459l2.734.876c.249.774.556 1.521.919 2.229l-1.312 2.549 5.274 5.273 2.548-1.311c.709.362 1.456.67 2.229.919l.879 2.735h7.459l.876-2.734c.134-.043.262-.098.394-.144v8.878h-42v-36h10v-10h32zm0 39.121v4h-38v-4zm-38 6h38v4h-38zm-2.586-46 6.586-6.586v6.586zm-7.414 45c0-2.757 2.243-5 5-5h3v10h-3c-2.757 0-5-2.243-5-5zm58 0c0 .265-.127.509-.343.659l-7.657 3.74v-8.798l7.657 3.74c.216.15.343.394.343.659zm-2.356-26.976-.146.517c-.279.989-.667 1.93-1.153 2.796l-.263.469 1.13 2.195-3.211 3.211-2.195-1.129-.468.263c-.867.484-1.807.872-2.796 1.152l-.517.146-.754 2.356h-4.541l-.755-2.356-.517-.146c-.989-.28-1.929-.668-2.796-1.152l-.468-.263-2.195 1.129-3.211-3.211 1.13-2.195-.263-.469c-.485-.866-.874-1.807-1.153-2.796l-.146-.517-2.356-.753v-4.541l2.356-.754.146-.517c.278-.986.667-1.927 1.153-2.797l.262-.469-1.129-2.194 3.211-3.212 2.195 1.13.468-.263c.867-.484 1.807-.872 2.796-1.152l.517-.146.754-2.356h4.541l.755 2.356.517.146c.989.28 1.929.668 2.796 1.152l.468.263 2.195-1.13 3.211 3.212-1.129 2.194.262.469c.487.87.875 1.811 1.153 2.797l.146.517 2.356.753v4.541z"/><path d="m11 18c0 1.654 1.346 3 3 3h10c.551 0 1 .448 1 1s-.449 1-1 1h-5c-1.654 0-3 1.346-3 3s1.346 3 3 3h2c.551 0 1 .448 1 1s-.449 1-1 1h-7c-1.654 0-3 1.346-3 3s1.346 3 3 3h14v-2h-14c-.551 0-1-.448-1-1s.449-1 1-1h7c1.654 0 3-1.346 3-3s-1.346-3-3-3h-2c-.551 0-1-.448-1-1s.449-1 1-1h5c1.654 0 3-1.346 3-3s-1.346-3-3-3h-10c-.551 0-1-.448-1-1s.449-1 1-1h15v-2h-15c-1.654 0-3 1.346-3 3z"/><path d="m11 41h2v2h-2z"/><path d="m15 41h14v2h-14z"/><path d="m11 45h18v2h-18z"/><path d="m31 45h2v2h-2z"/><path d="m39 45h2v2h-2z"/><path d="m35 45h2v2h-2z"/><path d="m47 5h2v2h-2z"/><path d="m39 5h2v2h-2z"/><path d="m43 5h2v2h-2z"/></g></svg>