<svg width="25" height="25" viewBox="0 0 25 25" fill="none" xmlns="http://www.w3.org/2000/svg">
<g clip-path="url(#clip0)">
<path d="M24.7772 18.0906C24.71 17.9781 24.2943 17.0749 22.2942 15.2185C20.2003 13.2746 20.4816 13.5903 23.0036 10.2291C24.5397 8.18208 25.1538 6.93199 24.9616 6.39757C24.7788 5.88816 23.649 6.02254 23.649 6.02254L19.8925 6.04442C19.8925 6.04442 19.6143 6.00692 19.4065 6.13036C19.2049 6.25225 19.0752 6.53352 19.0752 6.53352C19.0752 6.53352 18.4798 8.11801 17.686 9.46499C16.0125 12.3074 15.3421 12.4574 15.0687 12.2808C14.4327 11.8699 14.5921 10.6276 14.5921 9.74626C14.5921 6.99137 15.0093 5.84284 13.7779 5.54595C13.3685 5.4475 13.0685 5.38187 12.0231 5.37093C10.6824 5.35687 9.54637 5.37562 8.90414 5.68971C8.47598 5.8991 8.14627 6.36632 8.34785 6.39288C8.5963 6.4257 9.15884 6.54446 9.4573 6.95074C9.84327 7.47422 9.8292 8.65243 9.8292 8.65243C9.8292 8.65243 10.0511 11.8949 9.31198 12.298C8.80413 12.5746 8.10876 12.0105 6.61647 9.43061C5.85235 8.1102 5.27418 6.64915 5.27418 6.64915C5.27418 6.64915 5.16323 6.37726 4.96478 6.23194C4.72414 6.05536 4.38661 5.99911 4.38661 5.99911L0.814472 6.02098C0.814472 6.02098 0.278495 6.03661 0.0816049 6.26944C-0.0934081 6.47727 0.0675414 6.90542 0.0675414 6.90542C0.0675414 6.90542 2.86462 13.4481 6.03049 16.7468C8.93539 19.7704 12.2325 19.572 12.2325 19.572H13.7264C13.7264 19.572 14.178 19.522 14.4077 19.2735C14.6202 19.0454 14.6124 18.6172 14.6124 18.6172C14.6124 18.6172 14.5827 16.6124 15.514 16.3171C16.4313 16.0264 17.6095 18.2547 18.858 19.1126C19.8018 19.7611 20.5191 19.6189 20.5191 19.6189L23.8584 19.572C23.8584 19.572 25.6054 19.4642 24.7772 18.0906Z" fill="#FCFCFC"/>
</g>
<defs>
<clipPath id="clip0">
<rect width="25" height="25" fill="white"/>
</clipPath>
</defs>
</svg>
