<?xml version="1.0" encoding="iso-8859-1"?>
<!-- Generator: Adobe Illustrator 16.0.0, SVG Export Plug-In . SVG Version: 6.00 Build 0)  -->
<!DOCTYPE svg PUBLIC "-//W3C//DTD SVG 1.1//EN" "http://www.w3.org/Graphics/SVG/1.1/DTD/svg11.dtd">
<svg version="1.1" id="Capa_1" xmlns="http://www.w3.org/2000/svg" xmlns:xlink="http://www.w3.org/1999/xlink" x="0px" y="0px"
	 width="49.999px" height="49.999px" viewBox="0 0 49.999 49.999" style="enable-background:new 0 0 49.999 49.999;"
	 xml:space="preserve">
<g>
	<path d="M47.723,10.829c0-0.002-0.002-0.003-0.002-0.005c-0.004-0.003-0.008-0.005-0.011-0.007
		c-1.173-1.024-2.703-1.651-4.379-1.651H6.669c-1.676,0-3.206,0.627-4.379,1.651c-0.003,0.003-0.007,0.004-0.01,0.007
		c-0.001,0.002-0.002,0.003-0.003,0.005C0.885,12.053,0,13.841,0,15.835v18.328c0,1.995,0.885,3.782,2.277,5.006
		c0.001,0.002,0.002,0.005,0.003,0.007c0.003,0.002,0.007,0.004,0.01,0.006c1.173,1.025,2.703,1.651,4.379,1.651H43.33
		c1.676,0,3.206-0.626,4.379-1.651c0.003-0.002,0.007-0.004,0.01-0.006c0.002-0.002,0.002-0.005,0.004-0.007
		c1.392-1.224,2.276-3.011,2.276-5.006V15.834C49.999,13.84,49.115,12.052,47.723,10.829z M43.33,11.165
		c0.746,0,1.441,0.192,2.066,0.504L24.999,31.277L4.602,11.669c0.626-0.312,1.321-0.504,2.067-0.504H43.33z M1.999,15.834
		c0-1.1,0.398-2.098,1.037-2.896l12.546,12.061L3.036,37.061c-0.639-0.799-1.037-1.799-1.037-2.897V15.834z M6.669,38.832
		c-0.746,0-1.441-0.191-2.067-0.504l12.423-11.943l7.282,7.002C24.5,33.573,24.75,33.665,25,33.665s0.5-0.093,0.693-0.278
		l7.282-7.002l12.424,11.943c-0.627,0.312-1.321,0.504-2.067,0.504H6.669z M47.999,34.163c0,1.101-0.397,2.101-1.037,2.897
		L34.416,24.998l12.546-12.061c0.64,0.799,1.037,1.797,1.037,2.896V34.163z"/>
</g>
<g>
</g>
<g>
</g>
<g>
</g>
<g>
</g>
<g>
</g>
<g>
</g>
<g>
</g>
<g>
</g>
<g>
</g>
<g>
</g>
<g>
</g>
<g>
</g>
<g>
</g>
<g>
</g>
<g>
</g>
</svg>
