<svg width="100" height="85" viewBox="0 0 100 85" fill="none" xmlns="http://www.w3.org/2000/svg">
<g clip-path="url(#clip0)">
<path d="M87.2473 8.73327H52.4922V4.81464C52.4922 4.63852 52.4223 4.46961 52.2977 4.34507C52.1732 4.22054 52.0043 4.15057 51.8282 4.15057C51.652 4.15057 51.4831 4.22054 51.3586 4.34507C51.2341 4.46961 51.1641 4.63852 51.1641 4.81464V8.7326H16.4091C15.5288 8.73366 14.6849 9.08382 14.0624 9.70627C13.44 10.3287 13.0898 11.1726 13.0887 12.0529V75.6037C13.0898 76.484 13.44 77.3279 14.0624 77.9504C14.6849 78.5728 15.5288 78.923 16.4091 78.924H51.1641V82.842C51.1641 83.0181 51.2341 83.187 51.3586 83.3115C51.4831 83.4361 51.652 83.506 51.8282 83.506C52.0043 83.506 52.1732 83.4361 52.2977 83.3115C52.4223 83.187 52.4922 83.0181 52.4922 82.842V78.924H87.2473C88.1275 78.923 88.9715 78.5728 89.5939 77.9504C90.2164 77.3279 90.5665 76.484 90.5676 75.6037V12.0529C90.5663 11.1728 90.2161 10.329 89.5937 9.7067C88.9712 9.08439 88.1274 8.73432 87.2473 8.73327V8.73327Z" fill="#E6E7E8"/>
<path d="M11.0966 17.3741H87.2473V72.9475C87.2473 73.6519 86.9674 74.3276 86.4693 74.8257C85.9711 75.3239 85.2955 75.6037 84.591 75.6037H13.7528C13.0483 75.6037 12.3727 75.3239 11.8746 74.8257C11.3764 74.3276 11.0966 73.6519 11.0966 72.9475V17.3741V17.3741Z" fill="#D4FBFF"/>
<path d="M49.1719 75.603H84.591C85.2955 75.603 85.9711 75.3232 86.4692 74.825C86.9674 74.3269 87.2472 73.6513 87.2472 72.9468V17.3741H49.1719V75.603Z" fill="#FFD7E5"/>
<path d="M11.0966 9.39734V17.3741H87.2473V9.39734C87.2473 8.69286 86.9674 8.01723 86.4693 7.51909C85.9711 7.02094 85.2955 6.74109 84.591 6.74109H13.7528C13.0483 6.74109 12.3727 7.02094 11.8746 7.51909C11.3764 8.01723 11.0966 8.69286 11.0966 9.39734V9.39734Z" fill="#0089EF"/>
<path d="M84.591 6.74109H49.1719V17.3741H87.2472V9.39734C87.2472 8.69286 86.9674 8.01723 86.4692 7.51909C85.9711 7.02094 85.2955 6.74109 84.591 6.74109V6.74109Z" fill="#FA759E"/>
<path d="M84.591 6.74109H13.7528C13.0483 6.74109 12.3727 7.02094 11.8746 7.51909C11.3764 8.01723 11.0966 8.69286 11.0966 9.39734V11.3895C11.0966 10.685 11.3764 10.0094 11.8746 9.51127C12.3727 9.01313 13.0483 8.73328 13.7528 8.73328H84.591C85.2955 8.73328 85.9711 9.01313 86.4693 9.51127C86.9674 10.0094 87.2473 10.685 87.2473 11.3895V9.39734C87.2473 8.69286 86.9674 8.01723 86.4693 7.51909C85.9711 7.02094 85.2955 6.74109 84.591 6.74109V6.74109Z" fill="white"/>
<path d="M34.749 14.5007C35.9435 14.5007 36.9119 13.5323 36.9119 12.3378C36.9119 11.1433 35.9435 10.175 34.749 10.175C33.5545 10.175 32.5862 11.1433 32.5862 12.3378C32.5862 13.5323 33.5545 14.5007 34.749 14.5007Z" fill="white"/>
<path d="M26.8926 14.5007C28.0871 14.5007 29.0554 13.5323 29.0554 12.3378C29.0554 11.1433 28.0871 10.175 26.8926 10.175C25.6981 10.175 24.7297 11.1433 24.7297 12.3378C24.7297 13.5323 25.6981 14.5007 26.8926 14.5007Z" fill="#D4FBFF"/>
<path d="M19.0354 14.5007C20.2299 14.5007 21.1983 13.5323 21.1983 12.3378C21.1983 11.1433 20.2299 10.175 19.0354 10.175C17.8409 10.175 16.8726 11.1433 16.8726 12.3378C16.8726 13.5323 17.8409 14.5007 19.0354 14.5007Z" fill="#FA759E"/>
<path d="M36.4358 40.176H31.9142C31.7381 40.176 31.5692 40.106 31.4446 39.9815C31.3201 39.8569 31.2501 39.688 31.2501 39.5119C31.2501 39.3358 31.3201 39.1669 31.4446 39.0423C31.5692 38.9178 31.7381 38.8478 31.9142 38.8478H36.4358C36.6119 38.8478 36.7808 38.9178 36.9053 39.0423C37.0299 39.1669 37.0998 39.3358 37.0998 39.5119C37.0998 39.688 37.0299 39.8569 36.9053 39.9815C36.7808 40.106 36.6119 40.176 36.4358 40.176Z" fill="#FA759E"/>
<path d="M27.9299 40.176H16.7517C16.5756 40.176 16.4067 40.106 16.2821 39.9815C16.1576 39.8569 16.0876 39.688 16.0876 39.5119C16.0876 39.3358 16.1576 39.1669 16.2821 39.0423C16.4067 38.9178 16.5756 38.8478 16.7517 38.8478H27.9299C28.106 38.8478 28.2749 38.9178 28.3994 39.0423C28.524 39.1669 28.5939 39.3358 28.5939 39.5119C28.5939 39.688 28.524 39.8569 28.3994 39.9815C28.2749 40.106 28.106 40.176 27.9299 40.176Z" fill="#FA759E"/>
<path d="M36.4358 54.1213H29.59C29.4138 54.1213 29.2449 54.0513 29.1204 53.9268C28.9959 53.8022 28.9259 53.6333 28.9259 53.4572C28.9259 53.2811 28.9959 53.1122 29.1204 52.9877C29.2449 52.8631 29.4138 52.7932 29.59 52.7932H36.4358C36.6119 52.7932 36.7808 52.8631 36.9054 52.9877C37.0299 53.1122 37.0999 53.2811 37.0999 53.4572C37.0999 53.6333 37.0299 53.8022 36.9054 53.9268C36.7808 54.0513 36.6119 54.1213 36.4358 54.1213Z" fill="#FA759E"/>
<path d="M26.9338 54.1213H16.7517C16.5756 54.1213 16.4067 54.0513 16.2821 53.9268C16.1576 53.8022 16.0876 53.6333 16.0876 53.4572C16.0876 53.2811 16.1576 53.1122 16.2821 52.9877C16.4067 52.8631 16.5756 52.7932 16.7517 52.7932H26.9338C27.1099 52.7932 27.2788 52.8631 27.4033 52.9877C27.5279 53.1122 27.5978 53.2811 27.5978 53.4572C27.5978 53.6333 27.5279 53.8022 27.4033 53.9268C27.2788 54.0513 27.1099 54.1213 26.9338 54.1213Z" fill="#FA759E"/>
<path d="M36.4358 68.0666H29.59C29.4138 68.0666 29.2449 67.9966 29.1204 67.8721C28.9959 67.7476 28.9259 67.5786 28.9259 67.4025C28.9259 67.2264 28.9959 67.0575 29.1204 66.933C29.2449 66.8084 29.4138 66.7385 29.59 66.7385H36.4358C36.6119 66.7385 36.7808 66.8084 36.9054 66.933C37.0299 67.0575 37.0999 67.2264 37.0999 67.4025C37.0999 67.5786 37.0299 67.7476 36.9054 67.8721C36.7808 67.9966 36.6119 68.0666 36.4358 68.0666Z" fill="#FA759E"/>
<path d="M26.9338 68.0666H16.7517C16.5756 68.0666 16.4067 67.9966 16.2821 67.8721C16.1576 67.7476 16.0876 67.5786 16.0876 67.4025C16.0876 67.2264 16.1576 67.0575 16.2821 66.933C16.4067 66.8084 16.5756 66.7385 16.7517 66.7385H26.9338C27.1099 66.7385 27.2788 66.8084 27.4033 66.933C27.5279 67.0575 27.5978 67.2264 27.5978 67.4025C27.5978 67.5786 27.5279 67.7476 27.4033 67.8721C27.2788 67.9966 27.1099 68.0666 26.9338 68.0666Z" fill="#FA759E"/>
<path d="M81.6949 35.1743V24.8149C81.6949 24.0814 81.1003 23.4868 80.3668 23.4868H55.1637C54.4302 23.4868 53.8355 24.0814 53.8355 24.8149V35.1743C53.8355 35.9078 54.4302 36.5024 55.1637 36.5024H80.3668C81.1003 36.5024 81.6949 35.9078 81.6949 35.1743Z" fill="#6DC9F7"/>
<path d="M81.6957 57.9131V41.433C81.6957 40.6995 81.1011 40.1049 80.3676 40.1049H55.1644C54.4309 40.1049 53.8363 40.6995 53.8363 41.433V57.9131C53.8363 58.6466 54.4309 59.2412 55.1644 59.2412H80.3676C81.1011 59.2412 81.6957 58.6466 81.6957 57.9131Z" fill="#D4FBFF"/>
<path d="M22.8903 33.5426C23.004 33.5457 23.1172 33.5253 23.2227 33.4828C23.3283 33.4403 23.424 33.3766 23.5039 33.2956C23.5859 33.2131 23.6501 33.1147 23.6926 33.0064C23.7351 32.8982 23.7549 32.7823 23.7509 32.6661C23.7521 32.5218 23.7105 32.3804 23.6314 32.2597C23.5477 32.1345 23.4283 32.0373 23.2887 31.9808L18.0772 29.893L23.2887 27.8051C23.4286 27.7545 23.5488 27.661 23.6323 27.5379C23.7158 27.4148 23.7582 27.2685 23.7536 27.1198C23.7581 27.0054 23.7392 26.8913 23.6981 26.7844C23.657 26.6775 23.5945 26.5802 23.5145 26.4983C23.4352 26.4192 23.3406 26.3572 23.2364 26.3161C23.1322 26.275 23.0208 26.2556 22.9089 26.2592C22.7491 26.2608 22.5913 26.2935 22.444 26.3555L16.8181 28.6505C16.5647 28.7464 16.3475 28.9189 16.1965 29.1439C16.0484 29.3654 15.9706 29.6265 15.9734 29.893C15.9681 30.1623 16.046 30.4266 16.1965 30.65C16.3517 30.8731 16.5673 31.0472 16.8181 31.152L22.444 33.447C22.5853 33.507 22.7368 33.5394 22.8903 33.5426V33.5426Z" fill="#4D6172"/>
<path d="M25.4403 35.6603C25.6364 35.6619 25.8282 35.6035 25.9901 35.493C26.1609 35.3724 26.2824 35.1941 26.3321 34.991L29.9984 23.5166C30.0287 23.4085 30.0445 23.2969 30.0456 23.1846C30.0482 23.0649 30.0239 22.9462 29.9743 22.8372C29.9248 22.7282 29.8513 22.6318 29.7594 22.5551C29.5744 22.3929 29.336 22.3049 29.09 22.308C28.8886 22.3072 28.6925 22.372 28.5313 22.4927C28.3702 22.6134 28.2527 22.7833 28.1968 22.9767L24.5445 34.4517C24.5136 34.5598 24.4976 34.6714 24.4967 34.7838C24.4939 34.9036 24.5182 35.0225 24.5678 35.1316C24.6173 35.2407 24.6909 35.3372 24.7829 35.414C24.964 35.5747 25.1982 35.6625 25.4403 35.6603V35.6603Z" fill="#4D6172"/>
<path d="M30.9308 32.2597C30.8516 32.3804 30.8101 32.5218 30.8112 32.6661C30.8072 32.7823 30.8271 32.8982 30.8695 33.0064C30.912 33.1147 30.9763 33.2131 31.0583 33.2956C31.138 33.3766 31.2336 33.4404 31.339 33.4829C31.4445 33.5254 31.5575 33.5457 31.6712 33.5426C31.8247 33.5395 31.9761 33.507 32.1174 33.447L37.744 31.152C37.9947 31.047 38.2102 30.8729 38.3656 30.65C38.5159 30.4266 38.5936 30.1622 38.5881 29.893C38.5911 29.6266 38.5136 29.3654 38.3656 29.1439C38.2145 28.919 37.9973 28.7466 37.744 28.6505L32.1174 26.3555C31.9703 26.2934 31.8123 26.2607 31.6526 26.2592C31.5407 26.2556 31.4292 26.275 31.3251 26.3161C31.2209 26.3572 31.1263 26.4192 31.047 26.4983C30.967 26.5802 30.9045 26.6775 30.8634 26.7844C30.8223 26.8913 30.8034 27.0054 30.8079 27.1198C30.8032 27.2685 30.8457 27.4148 30.9292 27.5379C31.0126 27.661 31.1329 27.7545 31.2727 27.8051L36.4883 29.893L31.2767 31.9808C31.1357 32.0364 31.015 32.1337 30.9308 32.2597V32.2597Z" fill="#4D6172"/>
<path d="M87.2473 27.8769C87.0712 27.8769 86.9023 27.9468 86.7778 28.0714C86.6532 28.1959 86.5833 28.3648 86.5833 28.5409V34.1994C86.5833 34.3755 86.6532 34.5444 86.7778 34.669C86.9023 34.7935 87.0712 34.8635 87.2473 34.8635C87.4234 34.8635 87.5923 34.7935 87.7169 34.669C87.8414 34.5444 87.9114 34.3755 87.9114 34.1994V28.5409C87.9114 28.3648 87.8414 28.1959 87.7169 28.0714C87.5923 27.9468 87.4234 27.8769 87.2473 27.8769Z" fill="#4D6172"/>
<path d="M84.591 6.07702H49.836V2.15839C49.836 1.98227 49.766 1.81336 49.6415 1.68882C49.5169 1.56429 49.348 1.49432 49.1719 1.49432C48.9958 1.49432 48.8269 1.56429 48.7023 1.68882C48.5778 1.81336 48.5078 1.98227 48.5078 2.15839V6.07635H13.7528C12.8725 6.07741 12.0286 6.42757 11.4062 7.05002C10.7837 7.67247 10.4335 8.51639 10.4325 9.39667V72.9474C10.4335 73.8277 10.7837 74.6716 11.4062 75.2941C12.0286 75.9166 12.8725 76.2667 13.7528 76.2678H48.5078V80.1857C48.5078 80.3619 48.5778 80.5308 48.7023 80.6553C48.8269 80.7798 48.9958 80.8498 49.1719 80.8498C49.348 80.8498 49.5169 80.7798 49.6415 80.6553C49.766 80.5308 49.836 80.3619 49.836 80.1857V76.2678H84.591C85.4713 76.2667 86.3152 75.9166 86.9377 75.2941C87.5601 74.6716 87.9103 73.8277 87.9113 72.9474V36.9666C87.9113 36.7904 87.8414 36.6215 87.7168 36.497C87.5923 36.3725 87.4234 36.3025 87.2473 36.3025C87.0711 36.3025 86.9022 36.3725 86.7777 36.497C86.6532 36.6215 86.5832 36.7904 86.5832 36.9666V72.9468C86.5832 73.4751 86.3733 73.9819 85.9997 74.3555C85.6261 74.7291 85.1194 74.939 84.591 74.939H49.836V18.0381H86.5832V25.5951C86.5832 25.7713 86.6532 25.9402 86.7777 26.0647C86.9022 26.1892 87.0711 26.2592 87.2473 26.2592C87.4234 26.2592 87.5923 26.1892 87.7168 26.0647C87.8414 25.9402 87.9113 25.7713 87.9113 25.5951V9.39733C87.9103 8.51705 87.5601 7.67313 86.9377 7.05068C86.3152 6.42823 85.4713 6.07807 84.591 6.07702V6.07702ZM11.7606 9.39733C11.7606 8.86897 11.9705 8.36225 12.3441 7.98864C12.7177 7.61503 13.2244 7.40514 13.7528 7.40514H48.5078V16.71H11.7606V9.39733ZM13.7528 74.9403C13.2244 74.9403 12.7177 74.7304 12.3441 74.3568C11.9705 73.9832 11.7606 73.4765 11.7606 72.9481V18.0381H48.5078V43.4963H42.2066C42.0304 43.4963 41.8615 43.5662 41.737 43.6908C41.6125 43.8153 41.5425 43.9842 41.5425 44.1603C41.5425 44.3365 41.6125 44.5054 41.737 44.6299C41.8615 44.7544 42.0304 44.8244 42.2066 44.8244H48.5078V48.1447H21.4002C21.224 48.1447 21.0551 48.2147 20.9306 48.3392C20.8061 48.4637 20.7361 48.6327 20.7361 48.8088C20.7361 48.9849 20.8061 49.1538 20.9306 49.2783C21.0551 49.4029 21.224 49.4728 21.4002 49.4728H48.5078V57.4416H35.5659C35.3898 57.4416 35.2209 57.5116 35.0964 57.6361C34.9718 57.7606 34.9019 57.9295 34.9019 58.1057C34.9019 58.2818 34.9718 58.4507 35.0964 58.5752C35.2209 58.6998 35.3898 58.7697 35.5659 58.7697H48.5078V62.09H39.6094C39.4333 62.09 39.2644 62.16 39.1398 62.2845C39.0153 62.4091 38.9453 62.578 38.9453 62.7541C38.9453 62.9302 39.0153 63.0991 39.1398 63.2237C39.2644 63.3482 39.4333 63.4182 39.6094 63.4182H48.5078V74.939L13.7528 74.9403ZM49.836 16.71V7.40514H84.591C85.1194 7.40514 85.6261 7.61503 85.9997 7.98864C86.3733 8.36225 86.5832 8.86897 86.5832 9.39733V16.71H49.836Z" fill="#4D6172"/>
<path d="M38.1119 43.4963H21.4001C21.224 43.4963 21.0551 43.5662 20.9306 43.6908C20.806 43.8153 20.7361 43.9842 20.7361 44.1603C20.7361 44.3365 20.806 44.5054 20.9306 44.6299C21.0551 44.7544 21.224 44.8244 21.4001 44.8244H38.1119C38.2881 44.8244 38.457 44.7544 38.5815 44.6299C38.706 44.5054 38.776 44.3365 38.776 44.1603C38.776 43.9842 38.706 43.8153 38.5815 43.6908C38.457 43.5662 38.2881 43.4963 38.1119 43.4963Z" fill="#4D6172"/>
<path d="M21.4001 58.7697H31.4713C31.6474 58.7697 31.8163 58.6998 31.9409 58.5752C32.0654 58.4507 32.1354 58.2818 32.1354 58.1057C32.1354 57.9295 32.0654 57.7606 31.9409 57.6361C31.8163 57.5116 31.6474 57.4416 31.4713 57.4416H21.4001C21.224 57.4416 21.0551 57.5116 20.9306 57.6361C20.806 57.7606 20.7361 57.9295 20.7361 58.1057C20.7361 58.2818 20.806 58.4507 20.9306 58.5752C21.0551 58.6998 21.224 58.7697 21.4001 58.7697Z" fill="#4D6172"/>
<path d="M36.2307 62.09H21.4001C21.224 62.09 21.0551 62.16 20.9306 62.2845C20.806 62.4091 20.7361 62.578 20.7361 62.7541C20.7361 62.9302 20.806 63.0991 20.9306 63.2237C21.0551 63.3482 21.224 63.4182 21.4001 63.4182H36.2307C36.4068 63.4182 36.5757 63.3482 36.7002 63.2237C36.8248 63.0991 36.8947 62.9302 36.8947 62.7541C36.8947 62.578 36.8248 62.4091 36.7002 62.2845C36.5757 62.16 36.4068 62.09 36.2307 62.09Z" fill="#4D6172"/>
<path d="M82.3598 24.8149C82.3598 24.2865 82.1499 23.7798 81.7763 23.4062C81.4027 23.0326 80.896 22.8227 80.3676 22.8227H55.1644C54.6361 22.8227 54.1293 23.0326 53.7557 23.4062C53.3821 23.7798 53.1722 24.2865 53.1722 24.8149V35.1743C53.1722 35.7026 53.3821 36.2093 53.7557 36.5829C54.1293 36.9566 54.6361 37.1664 55.1644 37.1664H80.3676C80.896 37.1664 81.4027 36.9566 81.7763 36.5829C82.1499 36.2093 82.3598 35.7026 82.3598 35.1743V24.8149ZM81.0317 35.1743C81.0317 35.3504 80.9617 35.5193 80.8372 35.6438C80.7126 35.7684 80.5437 35.8383 80.3676 35.8383H55.1644C54.9883 35.8383 54.8194 35.7684 54.6949 35.6438C54.5703 35.5193 54.5004 35.3504 54.5004 35.1743V24.8149C54.5004 24.6388 54.5703 24.4699 54.6949 24.3453C54.8194 24.2208 54.9883 24.1508 55.1644 24.1508H80.3676C80.5437 24.1508 80.7126 24.2208 80.8372 24.3453C80.9617 24.4699 81.0317 24.6388 81.0317 24.8149V35.1743Z" fill="#4D6172"/>
<path d="M82.3598 57.9131V41.433C82.3598 40.9047 82.1499 40.398 81.7763 40.0244C81.4027 39.6507 80.896 39.4409 80.3676 39.4409H55.1644C54.6361 39.4409 54.1293 39.6507 53.7557 40.0244C53.3821 40.398 53.1722 40.9047 53.1722 41.433V57.9131C53.1722 58.4414 53.3821 58.9482 53.7557 59.3218C54.1293 59.6954 54.6361 59.9053 55.1644 59.9053H80.3676C80.896 59.9053 81.4027 59.6954 81.7763 59.3218C82.1499 58.9482 82.3598 58.4414 82.3598 57.9131V57.9131ZM55.1644 40.769H80.3676C80.5437 40.769 80.7126 40.8389 80.8372 40.9635C80.9617 41.088 81.0317 41.2569 81.0317 41.433V51.6105L77.4497 49.0439C77.3314 48.959 77.1885 48.9153 77.0429 48.9197C76.8974 48.924 76.7573 48.976 76.6442 49.0678L72.9487 52.0627L63.6226 45.1757C63.5069 45.0905 63.3666 45.0452 63.2229 45.0465C63.0793 45.0479 62.9399 45.0957 62.8257 45.183L54.5017 51.558V41.433C54.5017 41.2572 54.5715 41.0884 54.6957 40.964C54.82 40.8395 54.9885 40.7693 55.1644 40.769V40.769ZM80.3676 58.5772H55.1644C54.9883 58.5772 54.8194 58.5072 54.6949 58.3827C54.5703 58.2581 54.5004 58.0892 54.5004 57.9131V53.2314L63.2348 46.541L72.5728 53.438C72.6912 53.5254 72.8353 53.571 72.9824 53.5676C73.1295 53.5642 73.2714 53.5121 73.3856 53.4194L77.0878 50.4185L81.0317 53.2447V57.9131C81.0317 58.0892 80.9617 58.2581 80.8372 58.3827C80.7126 58.5072 80.5437 58.5772 80.3676 58.5772V58.5772Z" fill="#4D6172"/>
<path d="M72.5801 48.1998C73.1711 48.1998 73.7489 48.0246 74.2403 47.6962C74.7317 47.3679 75.1147 46.9012 75.3409 46.3551C75.5671 45.8091 75.6263 45.2082 75.5109 44.6286C75.3956 44.0489 75.111 43.5164 74.6931 43.0985C74.2752 42.6806 73.7427 42.396 73.1631 42.2807C72.5834 42.1654 71.9826 42.2246 71.4365 42.4507C70.8905 42.6769 70.4238 43.0599 70.0954 43.5513C69.7671 44.0428 69.5918 44.6205 69.5918 45.2116C69.5918 46.0041 69.9066 46.7642 70.467 47.3246C71.0275 47.885 71.7875 48.1998 72.5801 48.1998ZM72.5801 43.5514C72.9084 43.5514 73.2294 43.6488 73.5024 43.8312C73.7754 44.0136 73.9882 44.2729 74.1139 44.5762C74.2395 44.8796 74.2724 45.2134 74.2083 45.5354C74.1443 45.8575 73.9862 46.1533 73.754 46.3855C73.5218 46.6176 73.226 46.7758 72.904 46.8398C72.5819 46.9039 72.2481 46.871 71.9448 46.7453C71.6414 46.6197 71.3821 46.4069 71.1997 46.1339C71.0173 45.8609 70.9199 45.5399 70.9199 45.2116C70.9199 44.7712 71.0948 44.349 71.4062 44.0376C71.7175 43.7263 72.1398 43.5514 72.5801 43.5514Z" fill="#4D6172"/>
<path d="M80.5761 63.2189H54.9559C54.7798 63.2189 54.6109 63.2889 54.4864 63.4134C54.3618 63.538 54.2919 63.7069 54.2919 63.883C54.2919 64.0591 54.3618 64.228 54.4864 64.3526C54.6109 64.4771 54.7798 64.5471 54.9559 64.5471H80.5761C80.7522 64.5471 80.9212 64.4771 81.0457 64.3526C81.1702 64.228 81.2402 64.0591 81.2402 63.883C81.2402 63.7069 81.1702 63.538 81.0457 63.4134C80.9212 63.2889 80.7522 63.2189 80.5761 63.2189Z" fill="#4D6172"/>
<path d="M80.5761 68.8183H54.9559C54.7798 68.8183 54.6109 68.8883 54.4864 69.0128C54.3618 69.1373 54.2919 69.3062 54.2919 69.4824C54.2919 69.6585 54.3618 69.8274 54.4864 69.9519C54.6109 70.0765 54.7798 70.1464 54.9559 70.1464H80.5761C80.7522 70.1464 80.9212 70.0765 81.0457 69.9519C81.1702 69.8274 81.2402 69.6585 81.2402 69.4824C81.2402 69.3062 81.1702 69.1373 81.0457 69.0128C80.9212 68.8883 80.7522 68.8183 80.5761 68.8183Z" fill="#4D6172"/>
</g>
<defs>
<clipPath id="clip0">
<rect width="100" height="85" fill="white"/>
</clipPath>
</defs>
</svg>
