<svg width="100" height="85" viewBox="0 0 100 85" fill="none" xmlns="http://www.w3.org/2000/svg">
<g clip-path="url(#clip0)">
<g clip-path="url(#clip1)">
<path d="M17.6155 18.4785H7.89014V19.451H17.6155V18.4785Z" fill="#4D6172"/>
<path d="M17.6155 22.3686H7.89014V23.3411H17.6155V22.3686Z" fill="#4D6172"/>
<path d="M17.6155 26.2588H7.89014V27.2313H17.6155V26.2588Z" fill="#4D6172"/>
<path d="M17.6155 30.1489H7.89014V31.1215H17.6155V30.1489Z" fill="#4D6172"/>
<path d="M17.6155 34.0391H7.89014V35.0116H17.6155V34.0391Z" fill="#4D6172"/>
<path d="M17.6155 37.9293H7.89014V38.9018H17.6155V37.9293Z" fill="#4D6172"/>
<path d="M17.6155 41.8194H7.89014V42.7919H17.6155V41.8194Z" fill="#4D6172"/>
<path d="M17.6155 45.7096H7.89014V46.6821H17.6155V45.7096Z" fill="#4D6172"/>
<path d="M17.6155 49.5997H7.89014V50.5723H17.6155V49.5997Z" fill="#4D6172"/>
<path d="M17.6155 53.4899H7.89014V54.4624H17.6155V53.4899Z" fill="#4D6172"/>
<path d="M17.6155 57.38H7.89014V58.3526H17.6155V57.38Z" fill="#4D6172"/>
<path d="M76.4543 5.34915C75.1899 5.34915 74.2174 6.32169 74.2174 7.58599C74.2174 8.8503 75.1899 9.82284 76.4543 9.82284C77.7186 9.82284 78.6911 8.8503 78.6911 7.58599C78.6911 6.32169 77.7186 5.34915 76.4543 5.34915ZM76.4543 8.94755C75.7735 8.94755 75.1899 8.36403 75.1899 7.68325C75.1899 7.00247 75.7735 6.41895 76.4543 6.41895C77.135 6.41895 77.7186 7.00247 77.7186 7.68325C77.7186 8.36403 77.135 8.94755 76.4543 8.94755Z" fill="#4D6172"/>
<path d="M82.2895 5.34915C81.0252 5.34915 80.0526 6.32169 80.0526 7.58599C80.0526 8.8503 81.0252 9.82284 82.2895 9.82284C83.5538 9.82284 84.5263 8.8503 84.5263 7.58599C84.5263 6.32169 83.5538 5.34915 82.2895 5.34915ZM82.2895 8.94755C81.6087 8.94755 81.0252 8.36403 81.0252 7.68325C81.0252 7.00247 81.6087 6.41895 82.2895 6.41895C82.9702 6.41895 83.5538 7.00247 83.5538 7.68325C83.5538 8.36403 82.9702 8.94755 82.2895 8.94755Z" fill="#4D6172"/>
<path d="M88.1247 5.34915C86.8604 5.34915 85.8878 6.32169 85.8878 7.58599C85.8878 8.8503 86.8604 9.82284 88.1247 9.82284C89.389 9.82284 90.3615 8.8503 90.3615 7.58599C90.3615 6.32169 89.389 5.34915 88.1247 5.34915ZM88.1247 8.94755C87.4439 8.94755 86.8604 8.36403 86.8604 7.68325C86.8604 7.00247 87.4439 6.41895 88.1247 6.41895C88.8054 6.41895 89.389 7.00247 89.389 7.68325C89.389 8.36403 88.8054 8.94755 88.1247 8.94755Z" fill="#4D6172"/>
<path d="M49.7094 24.9945L41.9291 21.2016V22.8549L47.8616 25.8698L41.9291 28.7874V30.4407L49.7094 26.6478V24.9945Z" fill="#4D6172"/>
<path d="M32.2037 30.4407V28.7874L26.2712 25.8698L32.2037 22.8549V21.2016L24.4233 24.9945V26.6478L32.2037 30.4407Z" fill="#4D6172"/>
<path d="M38.8368 18.7432L33.4885 32.0016L34.9316 32.5837L40.2799 19.3253L38.8368 18.7432Z" fill="#4D6172"/>
<path d="M45.8192 35.9842H31.2311V36.9567H45.8192V35.9842Z" fill="#4D6172"/>
<path d="M45.8192 39.8743H31.2311V40.8469H45.8192V39.8743Z" fill="#4D6172"/>
<path d="M61.3798 39.8743H46.7917V40.8469H61.3798V39.8743Z" fill="#4D6172"/>
<path d="M56.5172 37.9293H41.9291V38.9018H56.5172V37.9293Z" fill="#4D6172"/>
<path d="M30.2586 35.9842H24.4233V36.9567H30.2586V35.9842Z" fill="#4D6172"/>
<path d="M30.2586 47.6546H24.4233V48.6272H30.2586V47.6546Z" fill="#4D6172"/>
<path d="M34.1487 37.9293H28.3135V38.9018H34.1487V37.9293Z" fill="#4D6172"/>
<path d="M40.9566 37.9293H35.1213V38.9018H40.9566V37.9293Z" fill="#4D6172"/>
<path d="M34.1487 45.7096H28.3135V46.6821H34.1487V45.7096Z" fill="#4D6172"/>
<path d="M40.9566 41.8194H35.1213V42.7919H40.9566V41.8194Z" fill="#4D6172"/>
<path d="M47.7643 41.8194H41.9291V42.7919H47.7643V41.8194Z" fill="#4D6172"/>
<path d="M54.5721 41.8194H48.7368V42.7919H54.5721V41.8194Z" fill="#4D6172"/>
<path d="M37.0663 43.7645H31.2311V44.737H37.0663V43.7645Z" fill="#4D6172"/>
<path d="M41.929 51.5448H27.3409V52.5173H41.929V51.5448Z" fill="#4D6172"/>
<path d="M57.4897 51.5448H42.9016V52.5173H57.4897V51.5448Z" fill="#4D6172"/>
<path d="M52.627 49.5997H38.0389V50.5723H52.627V49.5997Z" fill="#4D6172"/>
<path d="M30.2586 49.5997H24.4233V50.5723H30.2586V49.5997Z" fill="#4D6172"/>
<path d="M37.0663 49.5997H31.2311V50.5723H37.0663V49.5997Z" fill="#4D6172"/>
<path d="M30.2586 57.38H24.4233V58.3526H30.2586V57.38Z" fill="#4D6172"/>
<path d="M37.0663 53.4899H31.2311V54.4624H37.0663V53.4899Z" fill="#4D6172"/>
<path d="M43.8742 53.4899H38.0389V54.4624H43.8742V53.4899Z" fill="#4D6172"/>
<path d="M50.6819 53.4899H44.8467V54.4624H50.6819V53.4899Z" fill="#4D6172"/>
<path d="M33.1762 55.435H27.3409V56.4075H33.1762V55.435Z" fill="#4D6172"/>
<path d="M93.1819 0.000183105H8.18192C5.84783 0.000183105 4 1.84801 4 4.18211V13.6157V14.5883V60.0059C4 62.34 5.84783 64.1878 8.18192 64.1878H19.5606H20.5332H55.0584L54.7666 66.0357L58.6568 66.7164C58.754 67.9807 58.9485 69.245 59.3375 70.5093L55.9336 72.4544L59.3375 78.3869L62.6442 76.4418C63.5195 77.4144 64.492 78.2896 65.659 78.9704L64.2975 82.6661L70.7162 85.0002L71.9806 81.4018C73.3421 81.5963 74.6064 81.5963 75.968 81.4018L77.2323 85.0002L83.7483 82.6661L82.3867 79.0677C83.4565 78.3869 84.5263 77.5116 85.4016 76.5391L88.7082 78.4842L92.1121 72.5517L88.7082 70.6066C89.0973 69.3423 89.2918 68.078 89.389 66.8137L93.2792 66.1329L92.9874 64.1878H93.2792C95.516 64.1878 97.4611 62.34 97.4611 60.0059V14.5883V13.6157V4.18211C97.3638 1.84801 95.516 0.000183105 93.1819 0.000183105ZM8.18192 62.2427C6.91762 62.2427 5.94508 61.2702 5.94508 60.0059V14.5883H19.5606V62.2427H8.18192ZM87.4439 65.1604V66.1329C87.4439 67.689 87.1522 69.245 86.6659 70.7038L86.3741 71.4819L89.4863 73.2325L88.0275 75.7611L84.9153 74.0105L84.4291 74.6913C83.3593 75.9556 82.1922 77.0254 80.7334 77.8034L80.0526 78.1924L81.2197 81.499L78.4966 82.4716L77.3295 79.1649L76.5515 79.3594C74.8009 79.6512 73.3421 79.6512 71.6888 79.3594L70.9108 79.1649L69.7437 82.4716L67.0206 81.499L68.1876 78.1924L67.3124 77.8034C65.8535 77.0254 64.5892 75.9556 63.6167 74.6913L63.1304 74.0105L60.0183 75.7611L58.5595 73.2325L61.6716 71.4819L61.3799 70.7038C60.7963 69.245 60.6018 67.689 60.6018 66.1329V65.1604L57.0034 64.5768L57.4897 61.6592L61.0881 62.34L61.3799 61.562C61.9634 60.0059 62.7414 58.6443 63.8112 57.4773L64.3947 56.8938L61.9634 54.0734L64.103 52.2256L66.3398 55.0459L67.0206 54.6569C68.2849 53.9762 70.1327 53.3926 71.1053 53.1009L72.0778 52.8091V49.5997H74.9954V52.7119L75.8707 52.8091C77.6213 53.1009 79.1773 53.5871 80.5389 54.3652L81.2197 54.7542L83.8455 51.9338L86.0824 53.8789L83.7483 56.7965L84.3318 57.38C85.4016 58.5471 86.1796 60.0059 86.7632 61.4647L87.0549 62.2427L90.6533 61.562L91.1396 64.4796L87.4439 65.1604ZM95.4188 60.0059C95.4188 61.173 94.4462 62.2427 93.1819 62.2427H92.5984L92.1121 59.3251L88.1247 60.0059C87.6385 58.8389 86.9577 57.6718 86.1796 56.6993L88.8055 53.5871L83.651 49.2107L80.8307 52.4201C79.6636 51.8366 78.3993 51.3503 76.9405 51.0585V47.6546H70.1327V51.1558C69.2574 51.4475 67.9931 51.8366 66.8261 52.3228L64.2975 49.308L59.143 53.6844L61.7689 56.7965C60.9908 57.7691 60.4073 58.9361 59.8238 60.1032L55.9336 59.4224L55.4474 62.34H20.5332V14.5883H95.4188V60.0059ZM20.5332 13.6157H19.5606H5.94508V4.18211C5.94508 2.9178 6.91762 1.94526 8.18192 1.94526H93.3764C94.5435 1.94526 95.4188 2.9178 95.4188 4.18211V13.6157H20.5332Z" fill="#4D6172"/>
<path d="M74.0229 56.213C68.5767 56.213 64.103 60.6867 64.103 66.1329C64.103 71.5791 68.5767 76.0528 74.0229 76.0528C79.4692 76.0528 83.9428 71.5791 83.9428 66.1329C83.9428 60.6867 79.4692 56.213 74.0229 56.213ZM74.0229 75.0803C69.063 75.0803 65.0756 71.0928 65.0756 66.1329C65.0756 61.1729 69.063 57.1855 74.0229 57.1855C78.9829 57.1855 82.9703 61.1729 82.9703 66.1329C82.9703 71.0928 78.9829 75.0803 74.0229 75.0803Z" fill="#4D6172"/>
<path d="M74.0228 58.5471C69.8409 58.5471 66.437 61.951 66.437 66.1329C66.437 70.3148 69.8409 73.7187 74.0228 73.7187C78.2047 73.7187 81.6086 70.3148 81.6086 66.1329C81.6086 61.951 78.2047 58.5471 74.0228 58.5471ZM74.0228 71.7736C70.9107 71.7736 68.3821 69.245 68.3821 66.1329C68.3821 63.0208 70.9107 60.4922 74.0228 60.4922C77.135 60.4922 79.6636 63.0208 79.6636 66.1329C79.6636 69.245 77.135 71.7736 74.0228 71.7736Z" fill="#4D6172"/>
</g>
</g>
<defs>
<clipPath id="clip0">
<rect width="100" height="85" fill="white"/>
</clipPath>
<clipPath id="clip1">
<rect x="4" y="0.000183105" width="93.3638" height="85" fill="white"/>
</clipPath>
</defs>
</svg>
