<svg width="45" height="45" viewBox="0 0 45 45" fill="none" xmlns="http://www.w3.org/2000/svg">
<path d="M40.4828 12.1044H28.806V9.20304H40.4828V12.1044ZM22.6344 23.9957C23.3866 25.164 23.7641 26.5839 23.7641 28.244C23.7641 29.9671 23.3394 31.5086 22.4757 32.8713C21.9266 33.7736 21.2431 34.5357 20.4237 35.1478C19.5 35.857 18.4075 36.346 17.152 36.6077C15.8908 36.8694 14.5281 36.9967 13.0596 36.9967H0V8.00333H14.0019C17.531 8.05909 20.0334 9.0815 21.5105 11.092C22.397 12.3232 22.836 13.8003 22.836 15.5176C22.836 17.2922 22.3899 18.7092 21.4962 19.786C20.9986 20.3908 20.2636 20.9414 19.2884 21.4361C20.7655 21.9781 21.8851 22.826 22.6344 23.9957ZM6.68637 19.4342H12.8222C14.0834 19.4342 15.103 19.1926 15.8866 18.715C16.6716 18.2359 17.0634 17.3851 17.0634 16.164C17.0634 14.817 16.5458 13.9218 15.5062 13.4914C14.6125 13.1911 13.47 13.0367 12.0844 13.0367H6.68637V19.4342ZM17.654 27.8294C17.654 26.3236 17.0377 25.2841 15.8093 24.7235C15.123 24.4075 14.1535 24.2431 12.9109 24.2316H6.68637V31.9576H12.8122C14.072 31.9576 15.0458 31.7946 15.7493 31.4485C17.0176 30.8193 17.654 29.6168 17.654 27.8294ZM44.8141 23.1134C44.9571 24.0629 45.0214 25.4385 44.9928 27.2374H29.8727C29.9571 29.3251 30.6764 30.7836 32.0448 31.6187C32.867 32.142 33.8665 32.398 35.0377 32.398C36.2717 32.398 37.2769 32.0863 38.0505 31.4457C38.4724 31.1053 38.8441 30.6249 39.1644 30.0214H44.7083C44.561 31.2526 43.8961 32.5009 42.6949 33.775C40.8375 35.7912 38.2321 36.8079 34.8861 36.8079C32.1192 36.8079 29.684 35.9499 27.5691 34.2498C25.46 32.5453 24.4018 29.7726 24.4018 25.9318C24.4018 22.3298 25.3541 19.5701 27.2617 17.6525C29.1749 15.7293 31.6444 14.7726 34.6902 14.7726C36.4948 14.7726 38.122 15.0944 39.5748 15.7421C41.0219 16.3927 42.2173 17.4137 43.1582 18.8179C44.0091 20.0548 44.5581 21.4847 44.8141 23.1134ZM39.3561 23.6554C39.2574 22.2126 38.7741 21.1201 37.9047 20.3737C37.0424 19.623 35.9685 19.2483 34.6873 19.2483C33.2888 19.2483 32.215 19.6487 31.4457 20.438C30.6749 21.2288 30.1959 22.2984 29.9986 23.6554H39.3561Z" fill="black"/>
</svg>
