<svg width="45" height="45" viewBox="0 0 45 45" fill="none" xmlns="http://www.w3.org/2000/svg">
<path d="M41.0449 5.36133H3.95506C3.34624 5.36133 2.77627 5.51101 2.26062 5.75772L22.4121 25.9092L26.9287 21.5685C26.9287 21.5685 26.9291 21.5681 26.9291 21.5679C26.9292 21.5677 26.9296 21.5676 26.9296 21.5676L42.74 5.75807C42.2242 5.51118 41.6539 5.36133 41.0449 5.36133Z" fill="black"/>
<path d="M44.6041 7.62256L29.7257 22.5002L44.6036 37.378C44.8503 36.8624 45 36.2924 45 35.6836V9.31639C45 8.70792 44.8507 8.13804 44.6041 7.62256Z" fill="black"/>
<path d="M0.396387 7.62195C0.149678 8.1376 0 8.70757 0 9.31639V35.6836C0 36.292 0.149502 36.8621 0.396035 37.3776L15.2744 22.5L0.396387 7.62195Z" fill="black"/>
<path d="M27.8615 24.3644L23.3443 28.7056C23.0867 28.9631 22.7494 29.0919 22.4122 29.0919C22.075 29.0919 21.7375 28.9631 21.4801 28.7056L17.1387 24.3643L2.26001 39.2419C2.77575 39.4888 3.34607 39.6387 3.95507 39.6387H41.0449C41.6537 39.6387 42.2237 39.489 42.7394 39.2423L27.8615 24.3644Z" fill="black"/>
</svg>
