<svg width="45" height="45" viewBox="0 0 45 45" fill="none" xmlns="http://www.w3.org/2000/svg">
<path d="M44.9888 45V44.9982H45V28.4944C45 20.4207 43.2619 14.2013 33.8231 14.2013C29.2856 14.2013 26.2406 16.6913 24.9975 19.0519H24.8663V14.955H15.9169V44.9982H25.2356V30.1219C25.2356 26.205 25.9781 22.4175 30.8288 22.4175C35.6081 22.4175 35.6794 26.8875 35.6794 30.3732V45H44.9888Z" fill="black"/>
<path d="M0.742493 14.9568H10.0725V45H0.742493V14.9568Z" fill="black"/>
<path d="M5.40375 0C2.42062 0 0 2.42063 0 5.40375C0 8.38688 2.42062 10.8581 5.40375 10.8581C8.38688 10.8581 10.8075 8.38688 10.8075 5.40375C10.8056 2.42063 8.385 0 5.40375 0V0Z" fill="black"/>
</svg>
