<svg width="45" height="45" viewBox="0 0 45 45" fill="none" xmlns="http://www.w3.org/2000/svg">
<g clip-path="url(#clip0)">
<path d="M44.5989 32.5633C44.478 32.3608 43.7298 30.7351 40.1295 27.3936C36.3605 23.8946 36.8668 24.4627 41.4065 18.4126C44.1714 14.7279 45.2768 12.4778 44.9308 11.5158C44.6017 10.5989 42.5681 10.8408 42.5681 10.8408L35.8064 10.8802C35.8064 10.8802 35.3057 10.8127 34.9316 11.0349C34.5688 11.2542 34.3354 11.7605 34.3354 11.7605C34.3354 11.7605 33.2637 14.6126 31.8349 17.0372C28.8224 22.1535 27.6158 22.4235 27.1236 22.1057C25.9788 21.3659 26.2657 19.1298 26.2657 17.5435C26.2657 12.5847 27.0167 10.5173 24.8003 9.9829C24.0633 9.8057 23.5233 9.68757 21.6416 9.66788C19.2283 9.64257 17.1835 9.67632 16.0274 10.2417C15.2568 10.6186 14.6633 11.4596 15.0261 11.5074C15.4733 11.5665 16.4859 11.7802 17.0231 12.5115C17.7179 13.4538 17.6926 15.5746 17.6926 15.5746C17.6926 15.5746 18.092 21.4109 16.7616 22.1366C15.8474 22.6345 14.5958 21.6191 11.9096 16.9753C10.5342 14.5986 9.49352 11.9687 9.49352 11.9687C9.49352 11.9687 9.29381 11.4793 8.9366 11.2177C8.50344 10.8998 7.8959 10.7986 7.8959 10.7986L1.46605 10.838C1.46605 10.838 0.50129 10.8661 0.146889 11.2852C-0.168135 11.6593 0.121574 12.43 0.121574 12.43C0.121574 12.43 5.15632 24.2068 10.8549 30.1444C16.0837 35.587 22.0185 35.2298 22.0185 35.2298H24.7075C24.7075 35.2298 25.5203 35.1398 25.9338 34.6926C26.3163 34.2819 26.3023 33.5112 26.3023 33.5112C26.3023 33.5112 26.2488 29.9025 27.9252 29.3709C29.5762 28.8477 31.697 32.8587 33.9444 34.4028C35.6433 35.5701 36.9343 35.3142 36.9343 35.3142L42.945 35.2298C42.945 35.2298 46.0897 35.0357 44.5989 32.5633Z" fill="black"/>
</g>
<defs>
<clipPath id="clip0">
<rect width="45" height="45" fill="white"/>
</clipPath>
</defs>
</svg>
