<svg width="120" height="120" viewBox="0 0 120 120" fill="none" xmlns="http://www.w3.org/2000/svg">
<path d="M111.878 12.3291H62.8125V6.79688C62.8125 6.54823 62.7137 6.30978 62.5379 6.13396C62.3621 5.95815 62.1236 5.85938 61.875 5.85938C61.6263 5.85938 61.3879 5.95815 61.2121 6.13396C61.0362 6.30978 60.9375 6.54823 60.9375 6.79688V12.3281H11.8715C10.6288 12.3296 9.43736 12.824 8.5586 13.7027C7.67985 14.5815 7.18551 15.7729 7.18402 17.0156V106.734C7.18551 107.977 7.67985 109.169 8.5586 110.047C9.43736 110.926 10.6288 111.42 11.8715 111.422H60.9375V116.953C60.9375 117.202 61.0362 117.44 61.2121 117.616C61.3879 117.792 61.6263 117.891 61.875 117.891C62.1236 117.891 62.3621 117.792 62.5379 117.616C62.7137 117.44 62.8125 117.202 62.8125 116.953V111.422H111.878C113.121 111.42 114.313 110.926 115.191 110.047C116.07 109.169 116.564 107.977 116.566 106.734V17.0156C116.564 15.773 116.07 14.5819 115.191 13.7033C114.312 12.8248 113.121 12.3306 111.878 12.3291Z" fill="#E6E7E8"/>
<path d="M4.37152 24.5278H111.878V102.984C111.878 103.979 111.483 104.933 110.78 105.636C110.077 106.339 109.123 106.734 108.128 106.734H8.12152C7.12696 106.734 6.17313 106.339 5.46987 105.636C4.76661 104.933 4.37152 103.979 4.37152 102.984V24.5278Z" fill="#D4FBFF"/>
<path d="M58.125 106.733H108.128C109.123 106.733 110.077 106.338 110.78 105.635C111.483 104.932 111.878 103.978 111.878 102.983V24.5278H58.125V106.733Z" fill="#FFD7E5"/>
<path d="M4.37152 13.2666V24.5278H111.878V13.2666C111.878 12.272 111.483 11.3182 110.78 10.6149C110.077 9.91165 109.123 9.51656 108.128 9.51656H8.12152C7.12696 9.51656 6.17313 9.91165 5.46987 10.6149C4.76661 11.3182 4.37152 12.272 4.37152 13.2666Z" fill="#0089EF"/>
<path d="M108.128 9.51656H58.125V24.5278H111.878V13.2666C111.878 12.272 111.483 11.3182 110.78 10.6149C110.077 9.91165 109.123 9.51656 108.128 9.51656Z" fill="#FA759E"/>
<path d="M108.128 9.51656H8.12152C7.12696 9.51656 6.17313 9.91165 5.46987 10.6149C4.76661 11.3182 4.37152 12.272 4.37152 13.2666V16.0791C4.37152 15.0845 4.76661 14.1307 5.46987 13.4274C6.17313 12.7241 7.12696 12.3291 8.12152 12.3291H108.128C109.123 12.3291 110.077 12.7241 110.78 13.4274C111.483 14.1307 111.878 15.0845 111.878 16.0791V13.2666C111.878 12.272 111.483 11.3182 110.78 10.6149C110.077 9.91165 109.123 9.51656 108.128 9.51656Z" fill="white"/>
<path d="M37.7634 20.4713C39.4498 20.4713 40.8168 19.1042 40.8168 17.4178C40.8168 15.7314 39.4498 14.3644 37.7634 14.3644C36.077 14.3644 34.71 15.7314 34.71 17.4178C34.71 19.1042 36.077 20.4713 37.7634 20.4713Z" fill="white"/>
<path d="M26.6719 20.4713C28.3583 20.4713 29.7253 19.1042 29.7253 17.4178C29.7253 15.7314 28.3583 14.3644 26.6719 14.3644C24.9855 14.3644 23.6185 15.7314 23.6185 17.4178C23.6185 19.1042 24.9855 20.4713 26.6719 20.4713Z" fill="#D4FBFF"/>
<path d="M15.5794 20.4713C17.2657 20.4713 18.6328 19.1042 18.6328 17.4178C18.6328 15.7314 17.2657 14.3644 15.5794 14.3644C13.893 14.3644 12.5259 15.7314 12.5259 17.4178C12.5259 19.1042 13.893 20.4713 15.5794 20.4713Z" fill="#FA759E"/>
<path d="M40.1447 56.7188H33.7612C33.5126 56.7188 33.2741 56.62 33.0983 56.4442C32.9225 56.2683 32.8237 56.0299 32.8237 55.7812C32.8237 55.5326 32.9225 55.2942 33.0983 55.1183C33.2741 54.9425 33.5126 54.8438 33.7612 54.8438H40.1447C40.3933 54.8438 40.6318 54.9425 40.8076 55.1183C40.9834 55.2942 41.0822 55.5326 41.0822 55.7812C41.0822 56.0299 40.9834 56.2683 40.8076 56.4442C40.6318 56.62 40.3933 56.7188 40.1447 56.7188Z" fill="#FA759E"/>
<path d="M28.1363 56.7188H12.3553C12.1067 56.7188 11.8682 56.62 11.6924 56.4442C11.5166 56.2683 11.4178 56.0299 11.4178 55.7812C11.4178 55.5326 11.5166 55.2942 11.6924 55.1183C11.8682 54.9425 12.1067 54.8438 12.3553 54.8438H28.1363C28.3849 54.8438 28.6234 54.9425 28.7992 55.1183C28.975 55.2942 29.0738 55.5326 29.0738 55.7812C29.0738 56.0299 28.975 56.2683 28.7992 56.4442C28.6234 56.62 28.3849 56.7188 28.1363 56.7188Z" fill="#FA759E"/>
<path d="M40.1447 76.4062H30.48C30.2313 76.4062 29.9929 76.3075 29.8171 76.1317C29.6413 75.9558 29.5425 75.7174 29.5425 75.4688C29.5425 75.2201 29.6413 74.9817 29.8171 74.8058C29.9929 74.63 30.2313 74.5312 30.48 74.5312H40.1447C40.3933 74.5312 40.6318 74.63 40.8076 74.8058C40.9834 74.9817 41.0822 75.2201 41.0822 75.4688C41.0822 75.7174 40.9834 75.9558 40.8076 76.1317C40.6318 76.3075 40.3933 76.4062 40.1447 76.4062Z" fill="#FA759E"/>
<path d="M26.73 76.4062H12.3553C12.1067 76.4062 11.8682 76.3075 11.6924 76.1317C11.5166 75.9558 11.4178 75.7174 11.4178 75.4688C11.4178 75.2201 11.5166 74.9817 11.6924 74.8058C11.8682 74.63 12.1067 74.5312 12.3553 74.5312H26.73C26.9787 74.5312 27.2171 74.63 27.393 74.8058C27.5688 74.9817 27.6675 75.2201 27.6675 75.4688C27.6675 75.7174 27.5688 75.9558 27.393 76.1317C27.2171 76.3075 26.9787 76.4062 26.73 76.4062Z" fill="#FA759E"/>
<path d="M40.1447 96.0938H30.48C30.2313 96.0938 29.9929 95.995 29.8171 95.8192C29.6413 95.6433 29.5425 95.4049 29.5425 95.1562C29.5425 94.9076 29.6413 94.6692 29.8171 94.4933C29.9929 94.3175 30.2313 94.2188 30.48 94.2188H40.1447C40.3933 94.2188 40.6318 94.3175 40.8076 94.4933C40.9834 94.6692 41.0822 94.9076 41.0822 95.1562C41.0822 95.4049 40.9834 95.6433 40.8076 95.8192C40.6318 95.995 40.3933 96.0938 40.1447 96.0938Z" fill="#FA759E"/>
<path d="M26.73 96.0938H12.3553C12.1067 96.0938 11.8682 95.995 11.6924 95.8192C11.5166 95.6433 11.4178 95.4049 11.4178 95.1562C11.4178 94.9076 11.5166 94.6692 11.6924 94.4933C11.8682 94.3175 12.1067 94.2188 12.3553 94.2188H26.73C26.9787 94.2188 27.2171 94.3175 27.393 94.4933C27.5688 94.6692 27.6675 94.9076 27.6675 95.1562C27.6675 95.4049 27.5688 95.6433 27.393 95.8192C27.2171 95.995 26.9787 96.0938 26.73 96.0938Z" fill="#FA759E"/>
<path d="M104.04 49.6575V35.0325C104.04 33.997 103.201 33.1575 102.165 33.1575H66.584C65.5485 33.1575 64.709 33.997 64.709 35.0325V49.6575C64.709 50.693 65.5485 51.5325 66.584 51.5325H102.165C103.201 51.5325 104.04 50.693 104.04 49.6575Z" fill="#6DC9F7"/>
<path d="M104.041 81.7594V58.4934C104.041 57.4579 103.201 56.6184 102.166 56.6184H66.585C65.5495 56.6184 64.71 57.4579 64.71 58.4934V81.7594C64.71 82.7949 65.5495 83.6344 66.585 83.6344H102.166C103.201 83.6344 104.041 82.7949 104.041 81.7594Z" fill="#D4FBFF"/>
<path d="M21.0215 47.3541C21.1821 47.3584 21.3418 47.3296 21.4909 47.2696C21.6399 47.2096 21.775 47.1197 21.8878 47.0053C22.0035 46.8889 22.0942 46.7499 22.1542 46.5971C22.2142 46.4442 22.2422 46.2807 22.2365 46.1166C22.2382 45.9128 22.1795 45.7132 22.0678 45.5428C21.9496 45.3661 21.7811 45.2289 21.584 45.1491L14.2265 42.2016L21.584 39.2541C21.7815 39.1826 21.9512 39.0505 22.0691 38.8768C22.187 38.703 22.2469 38.4964 22.2403 38.2866C22.2466 38.125 22.22 37.9639 22.162 37.813C22.1039 37.6622 22.0157 37.5247 21.9028 37.4091C21.7908 37.2975 21.6572 37.21 21.5102 37.1519C21.3631 37.0939 21.2058 37.0665 21.0478 37.0716C20.8223 37.0738 20.5994 37.12 20.3915 37.2075L12.449 40.4475C12.0913 40.583 11.7846 40.8264 11.5715 41.1441C11.3624 41.4568 11.2526 41.8254 11.2565 42.2016C11.249 42.5817 11.359 42.955 11.5715 43.2703C11.7906 43.5853 12.095 43.8311 12.449 43.9791L20.3915 47.2191C20.591 47.3037 20.8049 47.3495 21.0215 47.3541Z" fill="#4D6172"/>
<path d="M24.6215 50.3438C24.8983 50.346 25.1691 50.2635 25.3977 50.1075C25.6389 49.9372 25.8103 49.6855 25.8805 49.3988L31.0565 33.1997C31.0992 33.047 31.1215 32.8894 31.1231 32.7309C31.1268 32.562 31.0924 32.3943 31.0225 32.2405C30.9525 32.0866 30.8488 31.9505 30.719 31.8422C30.4579 31.6132 30.1212 31.489 29.774 31.4934C29.4897 31.4923 29.2128 31.5838 28.9853 31.7541C28.7578 31.9245 28.592 32.1644 28.513 32.4375L23.3568 48.6375C23.3133 48.79 23.2905 48.9477 23.2893 49.1063C23.2854 49.2754 23.3197 49.4432 23.3897 49.5973C23.4597 49.7513 23.5634 49.8876 23.6934 49.9959C23.949 50.2228 24.2797 50.3467 24.6215 50.3438Z" fill="#4D6172"/>
<path d="M32.3728 45.5428C32.2611 45.7132 32.2024 45.9128 32.204 46.1166C32.1984 46.2807 32.2264 46.4442 32.2864 46.597C32.3464 46.7499 32.437 46.8888 32.5528 47.0053C32.6654 47.1197 32.8003 47.2097 32.9492 47.2697C33.098 47.3297 33.2577 47.3584 33.4181 47.3541C33.6348 47.3496 33.8486 47.3038 34.0481 47.2191L41.9915 43.9791C42.3454 43.8309 42.6497 43.585 42.869 43.2703C43.0813 42.9549 43.191 42.5816 43.1831 42.2016C43.1874 41.8255 43.0779 41.4568 42.869 41.1441C42.6557 40.8266 42.3491 40.5832 41.9915 40.4475L34.0481 37.2075C33.8403 37.1198 33.6174 37.0736 33.3918 37.0716C33.2338 37.0665 33.0765 37.0939 32.9294 37.1519C32.7824 37.21 32.6488 37.2975 32.5368 37.4091C32.4239 37.5247 32.3357 37.6622 32.2777 37.813C32.2196 37.9639 32.193 38.125 32.1993 38.2866C32.1927 38.4964 32.2527 38.703 32.3705 38.8768C32.4884 39.0505 32.6582 39.1826 32.8556 39.2541L40.2187 42.2016L32.8612 45.1491C32.6621 45.2276 32.4918 45.3649 32.3728 45.5428Z" fill="#4D6172"/>
<path d="M111.878 39.3553C111.63 39.3553 111.391 39.4541 111.216 39.6299C111.04 39.8057 110.941 40.0442 110.941 40.2928V48.2812C110.941 48.5299 111.04 48.7683 111.216 48.9442C111.391 49.12 111.63 49.2188 111.878 49.2188C112.127 49.2188 112.366 49.12 112.541 48.9442C112.717 48.7683 112.816 48.5299 112.816 48.2812V40.2928C112.816 40.0442 112.717 39.8057 112.541 39.6299C112.366 39.4541 112.127 39.3553 111.878 39.3553Z" fill="#4D6172"/>
<path d="M108.128 8.57906H59.0625V3.04688C59.0625 2.79823 58.9637 2.55978 58.7879 2.38396C58.6121 2.20815 58.3736 2.10938 58.125 2.10938C57.8763 2.10938 57.6379 2.20815 57.4621 2.38396C57.2862 2.55978 57.1875 2.79823 57.1875 3.04688V8.57812H8.12152C6.87878 8.57961 5.68736 9.07395 4.8086 9.95271C3.92985 10.8315 3.43551 12.0229 3.43402 13.2656V102.984C3.43551 104.227 3.92985 105.419 4.8086 106.297C5.68736 107.176 6.87878 107.67 8.12152 107.672H57.1875V113.203C57.1875 113.452 57.2862 113.69 57.4621 113.866C57.6379 114.042 57.8763 114.141 58.125 114.141C58.3736 114.141 58.6121 114.042 58.7879 113.866C58.9637 113.69 59.0625 113.452 59.0625 113.203V107.672H108.128C109.371 107.67 110.563 107.176 111.441 106.297C112.32 105.419 112.814 104.227 112.816 102.984V52.1878C112.816 51.9392 112.717 51.7007 112.541 51.5249C112.366 51.3491 112.127 51.2503 111.878 51.2503C111.63 51.2503 111.391 51.3491 111.215 51.5249C111.04 51.7007 110.941 51.9392 110.941 52.1878V102.983C110.941 103.729 110.645 104.445 110.117 104.972C109.59 105.5 108.874 105.796 108.128 105.796H59.0625V25.4653H110.941V36.1341C110.941 36.3827 111.04 36.6212 111.215 36.797C111.391 36.9728 111.63 37.0716 111.878 37.0716C112.127 37.0716 112.366 36.9728 112.541 36.797C112.717 36.6212 112.816 36.3827 112.816 36.1341V13.2666C112.814 12.0238 112.32 10.8324 111.441 9.95364C110.563 9.07489 109.371 8.58055 108.128 8.57906ZM5.30902 13.2666C5.30902 12.5206 5.60534 11.8053 6.13278 11.2778C6.66023 10.7504 7.3756 10.4541 8.12152 10.4541H57.1875V23.5903H5.30902V13.2666ZM8.12152 105.798C7.3756 105.798 6.66023 105.501 6.13278 104.974C5.60534 104.447 5.30902 103.731 5.30902 102.985V25.4653H57.1875V61.4062H48.2915C48.0429 61.4062 47.8044 61.505 47.6286 61.6808C47.4528 61.8567 47.354 62.0951 47.354 62.3438C47.354 62.5924 47.4528 62.8308 47.6286 63.0067C47.8044 63.1825 48.0429 63.2812 48.2915 63.2812H57.1875V67.9688H18.9178C18.6691 67.9688 18.4307 68.0675 18.2549 68.2433C18.079 68.4192 17.9803 68.6576 17.9803 68.9062C17.9803 69.1549 18.079 69.3933 18.2549 69.5692C18.4307 69.745 18.6691 69.8438 18.9178 69.8438H57.1875V81.0938H38.9165C38.6679 81.0938 38.4294 81.1925 38.2536 81.3683C38.0778 81.5442 37.979 81.7826 37.979 82.0312C37.979 82.2799 38.0778 82.5183 38.2536 82.6942C38.4294 82.87 38.6679 82.9688 38.9165 82.9688H57.1875V87.6562H44.625C44.3763 87.6562 44.1379 87.755 43.9621 87.9308C43.7862 88.1067 43.6875 88.3451 43.6875 88.5938C43.6875 88.8424 43.7862 89.0808 43.9621 89.2567C44.1379 89.4325 44.3763 89.5312 44.625 89.5312H57.1875V105.796L8.12152 105.798ZM59.0625 23.5903V10.4541H108.128C108.874 10.4541 109.59 10.7504 110.117 11.2778C110.645 11.8053 110.941 12.5206 110.941 13.2666V23.5903H59.0625Z" fill="#4D6172"/>
<path d="M42.5109 61.4062H18.9178C18.6691 61.4062 18.4307 61.505 18.2549 61.6808C18.0791 61.8567 17.9803 62.0951 17.9803 62.3438C17.9803 62.5924 18.0791 62.8308 18.2549 63.0067C18.4307 63.1825 18.6691 63.2812 18.9178 63.2812H42.5109C42.7596 63.2812 42.998 63.1825 43.1738 63.0067C43.3496 62.8308 43.4484 62.5924 43.4484 62.3438C43.4484 62.0951 43.3496 61.8567 43.1738 61.6808C42.998 61.505 42.7596 61.4062 42.5109 61.4062Z" fill="#4D6172"/>
<path d="M18.9178 82.9688H33.1359C33.3846 82.9688 33.623 82.87 33.7988 82.6942C33.9746 82.5183 34.0734 82.2799 34.0734 82.0312C34.0734 81.7826 33.9746 81.5442 33.7988 81.3683C33.623 81.1925 33.3846 81.0938 33.1359 81.0938H18.9178C18.6691 81.0938 18.4307 81.1925 18.2549 81.3683C18.0791 81.5442 17.9803 81.7826 17.9803 82.0312C17.9803 82.2799 18.0791 82.5183 18.2549 82.6942C18.4307 82.87 18.6691 82.9688 18.9178 82.9688Z" fill="#4D6172"/>
<path d="M39.855 87.6562H18.9178C18.6691 87.6562 18.4307 87.755 18.2549 87.9308C18.0791 88.1067 17.9803 88.3451 17.9803 88.5938C17.9803 88.8424 18.0791 89.0808 18.2549 89.2567C18.4307 89.4325 18.6691 89.5312 18.9178 89.5312H39.855C40.1036 89.5312 40.3421 89.4325 40.5179 89.2567C40.6937 89.0808 40.7925 88.8424 40.7925 88.5938C40.7925 88.3451 40.6937 88.1067 40.5179 87.9308C40.3421 87.755 40.1036 87.6562 39.855 87.6562Z" fill="#4D6172"/>
<path d="M104.978 35.0325C104.978 34.2866 104.682 33.5712 104.155 33.0438C103.627 32.5163 102.912 32.22 102.166 32.22H66.585C65.839 32.22 65.1237 32.5163 64.5962 33.0438C64.0688 33.5712 63.7725 34.2866 63.7725 35.0325V49.6575C63.7725 50.4034 64.0688 51.1188 64.5962 51.6462C65.1237 52.1737 65.839 52.47 66.585 52.47H102.166C102.912 52.47 103.627 52.1737 104.155 51.6462C104.682 51.1188 104.978 50.4034 104.978 49.6575V35.0325ZM103.103 49.6575C103.103 49.9061 103.005 50.1446 102.829 50.3204C102.653 50.4962 102.415 50.595 102.166 50.595H66.585C66.3363 50.595 66.0979 50.4962 65.922 50.3204C65.7462 50.1446 65.6475 49.9061 65.6475 49.6575V35.0325C65.6475 34.7839 65.7462 34.5454 65.922 34.3696C66.0979 34.1938 66.3363 34.095 66.585 34.095H102.166C102.415 34.095 102.653 34.1938 102.829 34.3696C103.005 34.5454 103.103 34.7839 103.103 35.0325V49.6575Z" fill="#4D6172"/>
<path d="M104.978 81.7594V58.4934C104.978 57.7475 104.682 57.0321 104.155 56.5047C103.627 55.9772 102.912 55.6809 102.166 55.6809H66.585C65.839 55.6809 65.1237 55.9772 64.5962 56.5047C64.0688 57.0321 63.7725 57.7475 63.7725 58.4934V81.7594C63.7725 82.5053 64.0688 83.2207 64.5962 83.7481C65.1237 84.2756 65.839 84.5719 66.585 84.5719H102.166C102.912 84.5719 103.627 84.2756 104.155 83.7481C104.682 83.2207 104.978 82.5053 104.978 81.7594ZM66.585 57.5559H102.166C102.415 57.5559 102.653 57.6547 102.829 57.8305C103.005 58.0063 103.103 58.2448 103.103 58.4934V72.8616L98.0465 69.2381C97.8795 69.1183 97.6777 69.0567 97.4722 69.0628C97.2667 69.0689 97.069 69.1423 96.9093 69.2719L91.6921 73.5L78.5259 63.7772C78.3625 63.657 78.1645 63.593 77.9617 63.5948C77.7588 63.5967 77.5621 63.6643 77.4009 63.7875L65.6493 72.7875V58.4934C65.6493 58.2451 65.7478 58.0069 65.9233 57.8312C66.0987 57.6554 66.3366 57.5564 66.585 57.5559ZM102.166 82.6969H66.585C66.3363 82.6969 66.0979 82.5981 65.922 82.4223C65.7462 82.2465 65.6475 82.008 65.6475 81.7594V75.15L77.9784 65.7047L91.1615 75.4416C91.3287 75.565 91.5321 75.6293 91.7398 75.6246C91.9475 75.6198 92.1477 75.5462 92.309 75.4153L97.5356 71.1788L103.103 75.1688V81.7594C103.103 82.008 103.005 82.2465 102.829 82.4223C102.653 82.5981 102.415 82.6969 102.166 82.6969Z" fill="#4D6172"/>
<path d="M91.1719 68.0466C92.0063 68.0466 92.8219 67.7991 93.5157 67.3356C94.2095 66.872 94.7502 66.2131 95.0695 65.4423C95.3888 64.6714 95.4724 63.8231 95.3096 63.0048C95.1468 62.1864 94.745 61.4347 94.155 60.8447C93.565 60.2547 92.8133 59.8529 91.9949 59.6901C91.1766 59.5273 90.3283 59.6109 89.5574 59.9302C88.7866 60.2495 88.1277 60.7902 87.6641 61.484C87.2005 62.1778 86.9531 62.9934 86.9531 63.8278C86.9531 64.9467 87.3976 66.0198 88.1888 66.8109C88.9799 67.6021 90.053 68.0466 91.1719 68.0466ZM91.1719 61.4841C91.6354 61.4841 92.0886 61.6215 92.474 61.8791C92.8594 62.1366 93.1598 62.5026 93.3372 62.9309C93.5146 63.3592 93.561 63.8304 93.4706 64.2851C93.3802 64.7397 93.1569 65.1573 92.8292 65.4851C92.5014 65.8129 92.0838 66.0361 91.6291 66.1265C91.1745 66.217 90.7032 66.1706 90.275 65.9932C89.8467 65.8158 89.4807 65.5154 89.2231 65.1299C88.9656 64.7445 88.8281 64.2914 88.8281 63.8278C88.8281 63.2062 89.0751 62.6101 89.5146 62.1705C89.9541 61.731 90.5503 61.4841 91.1719 61.4841Z" fill="#4D6172"/>
<path d="M102.46 89.25H66.2906C66.0419 89.25 65.8035 89.3488 65.6277 89.5246C65.4519 89.7004 65.3531 89.9389 65.3531 90.1875C65.3531 90.4361 65.4519 90.6746 65.6277 90.8504C65.8035 91.0262 66.0419 91.125 66.2906 91.125H102.46C102.709 91.125 102.947 91.0262 103.123 90.8504C103.299 90.6746 103.398 90.4361 103.398 90.1875C103.398 89.9389 103.299 89.7004 103.123 89.5246C102.947 89.3488 102.709 89.25 102.46 89.25Z" fill="#4D6172"/>
<path d="M102.46 97.155H66.2906C66.0419 97.155 65.8035 97.2538 65.6277 97.4296C65.4519 97.6054 65.3531 97.8439 65.3531 98.0925C65.3531 98.3412 65.4519 98.5796 65.6277 98.7554C65.8035 98.9312 66.0419 99.03 66.2906 99.03H102.46C102.709 99.03 102.947 98.9312 103.123 98.7554C103.299 98.5796 103.398 98.3412 103.398 98.0925C103.398 97.8439 103.299 97.6054 103.123 97.4296C102.947 97.2538 102.709 97.155 102.46 97.155Z" fill="#4D6172"/>
</svg>
